<svg xmlns="http://www.w3.org/2000/svg" xmlns:xlink="http://www.w3.org/1999/xlink" viewBox="0 0 233.6171 385.3868"><defs><linearGradient id="linear-gradient" x1="-275.9502" y1="424.3914" x2="-275.9502" y2="489.2227" gradientTransform="matrix(1.2801, 0.0576, -0.0532, 1.1813, 656.784, -363.1307)" gradientUnits="userSpaceOnUse"><stop offset="0.454" stop-color="#dededc"/><stop offset="1" stop-color="gray"/></linearGradient><linearGradient id="linear-gradient-2" x1="231.2154" y1="236.3801" x2="141.1606" y2="195.9042" gradientUnits="userSpaceOnUse"><stop offset="0" stop-color="#dededc"/><stop offset="1" stop-color="gray"/></linearGradient><linearGradient id="linear-gradient-3" x1="192.5715" y1="61.6699" x2="201.4186" y2="107.5643" gradientUnits="userSpaceOnUse"><stop offset="0" stop-color="#e0e0e0"/><stop offset="0.4172" stop-color="#e57488"/><stop offset="1" stop-color="#2a040b"/></linearGradient><linearGradient id="linear-gradient-4" x1="98.3696" y1="61.1407" x2="166.5286" y2="61.1407" xlink:href="#linear-gradient-3"/><linearGradient id="linear-gradient-5" x1="111.5475" y1="233.216" x2="160.035" y2="233.216" gradientUnits="userSpaceOnUse"><stop offset="0" stop-color="#9b9b97"/><stop offset="1"/></linearGradient><linearGradient id="linear-gradient-6" x1="76.3199" y1="99.3752" x2="133.0591" y2="99.3752" gradientUnits="userSpaceOnUse"><stop offset="0.0736" stop-color="#e57488"/><stop offset="0.454" stop-color="#b31c19"/><stop offset="1"/></linearGradient><linearGradient id="linear-gradient-7" x1="260.4517" y1="250.141" x2="309.9369" y2="250.141" xlink:href="#linear-gradient-5"/><linearGradient id="linear-gradient-8" x1="178.7795" y1="284.3069" x2="243.606" y2="284.3069" xlink:href="#linear-gradient-5"/><linearGradient id="linear-gradient-9" x1="139.8385" y1="275.7176" x2="229.208" y2="275.7176" xlink:href="#linear-gradient-5"/><linearGradient id="linear-gradient-10" x1="284.6136" y1="226.2734" x2="261.8146" y2="273.1741" gradientUnits="userSpaceOnUse"><stop offset="0" stop-color="#666"/><stop offset="1"/></linearGradient><linearGradient id="linear-gradient-11" x1="276.4331" y1="230.1577" x2="294.7217" y2="230.1577" xlink:href="#linear-gradient-5"/><linearGradient id="linear-gradient-12" x1="126.9663" y1="182.7734" x2="235.6553" y2="182.7734" gradientUnits="userSpaceOnUse"><stop offset="0" stop-color="#a00a21"/><stop offset="1"/></linearGradient><linearGradient id="linear-gradient-13" x1="215.5081" y1="75.3902" x2="225.5606" y2="163.1216" gradientUnits="userSpaceOnUse"><stop offset="0.0307" stop-color="#a51838"/><stop offset="0.2577" stop-color="#8d182c"/><stop offset="1"/></linearGradient><linearGradient id="linear-gradient-14" x1="220.0051" y1="96.3499" x2="225.8539" y2="177.1358" gradientUnits="userSpaceOnUse"><stop offset="0.0184" stop-color="#e57488"/><stop offset="0.2883" stop-color="#d4000a"/><stop offset="1"/></linearGradient><linearGradient id="linear-gradient-15" x1="139.8823" y1="181.5552" x2="233.4014" y2="181.5552" gradientUnits="userSpaceOnUse"><stop offset="0.0184" stop-color="#781829"/><stop offset="0.4417" stop-color="#121212"/><stop offset="1"/></linearGradient><linearGradient id="linear-gradient-16" x1="150.2397" y1="177.8389" x2="230.0503" y2="177.8389" gradientUnits="userSpaceOnUse"><stop offset="0.1043" stop-color="#ff0f0a"/><stop offset="0.3511" stop-color="#7c122a"/><stop offset="0.6271" stop-color="#1a1a1a"/><stop offset="1"/></linearGradient><linearGradient id="linear-gradient-17" x1="131.353" y1="202.0386" x2="240.3774" y2="202.0386" gradientUnits="userSpaceOnUse"><stop offset="0" stop-color="#d41838"/><stop offset="1"/></linearGradient><linearGradient id="linear-gradient-18" x1="106.3198" y1="92.4111" x2="222.9006" y2="92.4111" gradientUnits="userSpaceOnUse"><stop offset="0" stop-color="#e57488"/><stop offset="0.2883" stop-color="#a02037"/><stop offset="1" stop-color="#3d0300"/></linearGradient><linearGradient id="linear-gradient-19" x1="234.4671" y1="103.4137" x2="234.8674" y2="179.8522" gradientUnits="userSpaceOnUse"><stop offset="0" stop-color="#a02037"/><stop offset="1"/></linearGradient><linearGradient id="linear-gradient-20" x1="250.7132" y1="102.4198" x2="237.188" y2="209.1592" xlink:href="#linear-gradient-17"/><linearGradient id="linear-gradient-21" x1="133.0591" y1="202.833" x2="237.347" y2="202.833" gradientUnits="userSpaceOnUse"><stop offset="0.0061" stop-color="#e57488"/><stop offset="0.1288" stop-color="#ff0f0a"/><stop offset="0.362" stop-color="#7c122a"/><stop offset="0.8098" stop-color="#1a1a1a"/><stop offset="1"/></linearGradient><linearGradient id="linear-gradient-22" x1="146.657" y1="170.2975" x2="232.7391" y2="225.1271" xlink:href="#linear-gradient-15"/><linearGradient id="linear-gradient-23" x1="149.3257" y1="197.167" x2="234.9546" y2="197.167" gradientUnits="userSpaceOnUse"><stop offset="0.0184" stop-color="#7c122a"/><stop offset="0.1902" stop-color="#7c122a"/><stop offset="0.7178"/><stop offset="1"/></linearGradient><linearGradient id="linear-gradient-24" x1="114.5073" y1="131.9778" x2="213.3877" y2="131.9778" xlink:href="#linear-gradient-14"/><linearGradient id="linear-gradient-25" x1="127.9409" y1="106.6035" x2="203.7007" y2="106.6035" gradientUnits="userSpaceOnUse"><stop offset="0.0307" stop-color="#e57488"/><stop offset="0.2577" stop-color="#ff0f0a"/><stop offset="1" stop-color="#2a040b"/></linearGradient><linearGradient id="linear-gradient-26" x1="103.734" y1="43.711" x2="185.982" y2="114.2616" gradientUnits="userSpaceOnUse"><stop offset="0" stop-color="#ff0f0a"/><stop offset="0.2699" stop-color="#e57488"/><stop offset="0.4908" stop-color="#ff0f0a"/><stop offset="1" stop-color="#2a040b"/></linearGradient><linearGradient id="linear-gradient-27" x1="126.3756" y1="64.5195" x2="173.6343" y2="64.5195" gradientUnits="userSpaceOnUse"><stop offset="0.0307" stop-color="#e57488"/><stop offset="0.2577" stop-color="#ff0f0a"/><stop offset="0.2914" stop-color="#ec0e0a"/><stop offset="0.3901" stop-color="#b90b0a"/><stop offset="0.4908" stop-color="#8d090b"/><stop offset="0.5917" stop-color="#69070b"/><stop offset="0.6927" stop-color="#4e060b"/><stop offset="0.7942" stop-color="#3a050b"/><stop offset="0.8962" stop-color="#2e040b"/><stop offset="1" stop-color="#2a040b"/></linearGradient><linearGradient id="linear-gradient-28" x1="131.3041" y1="55.8379" x2="171.8677" y2="55.8379" xlink:href="#linear-gradient-25"/><linearGradient id="linear-gradient-29" x1="154.1689" y1="78.456" x2="177.9484" y2="78.456" xlink:href="#linear-gradient-25"/><linearGradient id="linear-gradient-30" x1="138.481" y1="43.9121" x2="155.54" y2="43.9121" xlink:href="#linear-gradient-25"/><linearGradient id="linear-gradient-31" x1="163.94" y1="55.9967" x2="184.5934" y2="99.1313" gradientUnits="userSpaceOnUse"><stop offset="0" stop-color="#ff0f0a"/><stop offset="1" stop-color="#2a040b"/></linearGradient><linearGradient id="linear-gradient-32" x1="176.1793" y1="70.2905" x2="195.918" y2="117.444" xlink:href="#linear-gradient-25"/><linearGradient id="linear-gradient-33" x1="208.5044" y1="100.997" x2="203.3867" y2="116.7156" gradientUnits="userSpaceOnUse"><stop offset="0" stop-color="#781829"/><stop offset="1" stop-color="#2a040b"/></linearGradient><linearGradient id="linear-gradient-34" x1="191.1807" y1="113.914" x2="213.7076" y2="113.914" xlink:href="#linear-gradient-25"/><linearGradient id="linear-gradient-35" x1="200.2611" y1="69.0215" x2="210.1308" y2="143.5924" xlink:href="#linear-gradient-25"/><linearGradient id="linear-gradient-36" x1="230.1458" y1="109.6649" x2="230.1458" y2="193.3917" gradientUnits="userSpaceOnUse"><stop offset="0.0184" stop-color="#7c122a"/><stop offset="0.4417" stop-color="#7c122a"/><stop offset="0.7178"/><stop offset="1"/></linearGradient><linearGradient id="linear-gradient-37" x1="218.1151" y1="205.8829" x2="238.5856" y2="141.9126" gradientUnits="userSpaceOnUse"><stop offset="0.0184"/><stop offset="0.4417" stop-color="#121212"/><stop offset="1"/></linearGradient><linearGradient id="linear-gradient-38" x1="241.5879" y1="128.6519" x2="237.9325" y2="200.2988" gradientUnits="userSpaceOnUse"><stop offset="0.0184" stop-color="#7c122a"/><stop offset="0.4417" stop-color="#393434"/><stop offset="0.7178"/><stop offset="1"/></linearGradient><linearGradient id="linear-gradient-39" x1="251.6413" y1="146.7786" x2="240.3096" y2="201.6096" xlink:href="#linear-gradient-38"/><linearGradient id="linear-gradient-40" x1="267.7622" y1="137.8895" x2="204.3912" y2="195.4996" xlink:href="#linear-gradient-16"/><linearGradient id="linear-gradient-41" x1="274.1259" y1="122.4608" x2="215.4368" y2="214.0812" xlink:href="#linear-gradient-21"/><linearGradient id="linear-gradient-42" x1="232.8819" y1="260.7913" x2="267.9729" y2="207.3323" xlink:href="#linear-gradient-37"/><linearGradient id="linear-gradient-43" x1="242.2354" y1="217.9883" x2="275.4736" y2="217.9883" gradientUnits="userSpaceOnUse"><stop offset="0" stop-color="#050505"/><stop offset="1"/></linearGradient><linearGradient id="linear-gradient-44" x1="245.1597" y1="242.6621" x2="276.9992" y2="242.6621" gradientUnits="userSpaceOnUse"><stop offset="0" stop-color="#333"/><stop offset="1"/></linearGradient><linearGradient id="linear-gradient-45" x1="156.21" y1="222.1066" x2="240.5293" y2="222.1066" xlink:href="#linear-gradient-37"/><linearGradient id="linear-gradient-46" x1="231.4111" y1="253.8994" x2="147.5225" y2="183.9922" xlink:href="#linear-gradient-37"/><linearGradient id="linear-gradient-47" x1="154.4131" y1="211.1768" x2="234.4635" y2="249.8312" xlink:href="#linear-gradient-44"/><linearGradient id="linear-gradient-48" x1="167.161" y1="213.1435" x2="202.2519" y2="240.0099" xlink:href="#linear-gradient-44"/><linearGradient id="linear-gradient-49" x1="163.6431" y1="249.6701" x2="241.1387" y2="249.6701" gradientUnits="userSpaceOnUse"><stop offset="0" stop-color="#545454"/><stop offset="0.6748"/><stop offset="0.9755"/></linearGradient><linearGradient id="linear-gradient-50" x1="243.0941" y1="283.7626" x2="191.0063" y2="246.2044" gradientUnits="userSpaceOnUse"><stop offset="0.0184"/><stop offset="0.2756" stop-color="#0c0c0c"/><stop offset="0.5337" stop-color="#121212"/><stop offset="1"/></linearGradient><linearGradient id="linear-gradient-51" x1="174" y1="264.7131" x2="244.7939" y2="264.7131" xlink:href="#linear-gradient-44"/><linearGradient id="linear-gradient-52" x1="201.3768" y1="264.4187" x2="225.7831" y2="282.508" xlink:href="#linear-gradient-44"/><linearGradient id="linear-gradient-53" x1="85.0503" y1="146.8282" x2="228.1011" y2="146.8282" xlink:href="#linear-gradient-19"/><linearGradient id="linear-gradient-54" x1="152.484" y1="141.4189" x2="218.2789" y2="188.0236" gradientUnits="userSpaceOnUse"><stop offset="0.0184" stop-color="#7c122a"/><stop offset="0.4417" stop-color="#121212"/><stop offset="1"/></linearGradient><linearGradient id="linear-gradient-55" x1="117.3403" y1="144.8481" x2="218.231" y2="144.8481" xlink:href="#linear-gradient-14"/><linearGradient id="linear-gradient-56" x1="110.5776" y1="154.2915" x2="223.5923" y2="154.2915" xlink:href="#linear-gradient-25"/><linearGradient id="linear-gradient-57" x1="259.9105" y1="98.1484" x2="241.2628" y2="220.2722" gradientUnits="userSpaceOnUse"><stop offset="0.0184" stop-color="#e57488"/><stop offset="0.5092" stop-color="#e57488"/><stop offset="0.5678" stop-color="#e17285"/><stop offset="0.6324" stop-color="#d36b7d"/><stop offset="0.6998" stop-color="#bd6070"/><stop offset="0.7691" stop-color="#9e505e"/><stop offset="0.84" stop-color="#773c46"/><stop offset="0.9122" stop-color="#46232a"/><stop offset="0.984" stop-color="#0e0708"/><stop offset="1"/></linearGradient><linearGradient id="linear-gradient-58" x1="239.9593" y1="225.5384" x2="270.2502" y2="225.5384" gradientUnits="userSpaceOnUse"><stop offset="0.0184" stop-color="#2c020c"/><stop offset="0.5092" stop-color="#212121"/><stop offset="0.7122" stop-color="#1d1d1d"/><stop offset="0.9351" stop-color="#0f0f0f"/><stop offset="1" stop-color="#0a0a0a"/></linearGradient><linearGradient id="linear-gradient-59" x1="243.3648" y1="122.8495" x2="234.9572" y2="207.6565" xlink:href="#linear-gradient-57"/><linearGradient id="linear-gradient-60" x1="218.0132" y1="98.8235" x2="223.0253" y2="161.8332" xlink:href="#linear-gradient-57"/><linearGradient id="linear-gradient-61" x1="-778.8218" y1="258.9947" x2="-736.8755" y2="206.9043" gradientTransform="matrix(0.8343, 0.3782, -0.4882, 1.077, 1001.6188, 280.3203)" xlink:href="#linear-gradient-58"/><linearGradient id="linear-gradient-62" x1="239.6456" y1="246.4053" x2="174.5348" y2="217.1407" gradientUnits="userSpaceOnUse"><stop offset="0.0184" stop-color="#2c020c"/><stop offset="0.5092" stop-color="#4d4d4d"/><stop offset="0.6991" stop-color="#494949"/><stop offset="0.9077" stop-color="#3b3b3b"/><stop offset="1" stop-color="#333"/></linearGradient><linearGradient id="linear-gradient-63" x1="139.0587" y1="174.3483" x2="228.2814" y2="174.3483" gradientUnits="userSpaceOnUse"><stop offset="0.0184" stop-color="#2c020c"/><stop offset="0.5092" stop-color="#4d4d4d"/><stop offset="0.6148" stop-color="#494949"/><stop offset="0.7311" stop-color="#3b3b3b"/><stop offset="0.8523" stop-color="#252525"/><stop offset="0.9763" stop-color="#070707"/><stop offset="1"/></linearGradient><linearGradient id="linear-gradient-64" x1="538.69" y1="560.8713" x2="618.7423" y2="560.8713" gradientTransform="translate(-485.4701 -255.0777) rotate(-10.5683)" xlink:href="#linear-gradient-57"/><linearGradient id="linear-gradient-65" x1="128.4118" y1="103.3161" x2="201.2673" y2="103.3161" xlink:href="#linear-gradient-57"/><linearGradient id="linear-gradient-66" x1="168.4989" y1="64.5731" x2="174.3478" y2="94.9142" xlink:href="#linear-gradient-57"/><linearGradient id="linear-gradient-67" x1="114.6635" y1="67.6422" x2="179.4683" y2="67.6422" gradientUnits="userSpaceOnUse"><stop offset="0" stop-color="#ff0f0a"/><stop offset="0.4172" stop-color="#e57488"/><stop offset="1" stop-color="#2a040b"/></linearGradient><linearGradient id="linear-gradient-68" x1="174.7518" y1="95.4318" x2="237.631" y2="246.269" gradientTransform="translate(-1.5356 -1.4038) rotate(-0.0458)" xlink:href="#linear-gradient-67"/><linearGradient id="linear-gradient-69" x1="173.8233" y1="88.4965" x2="244.8268" y2="266.4168" gradientUnits="userSpaceOnUse"><stop offset="0"/><stop offset="0.6503" stop-color="#4d4d4d"/><stop offset="1"/></linearGradient><linearGradient id="linear-gradient-70" x1="254.2641" y1="349.5564" x2="248.9637" y2="303.4983" gradientUnits="userSpaceOnUse"><stop offset="0" stop-color="#ffcc60"/><stop offset="0.0235" stop-color="#dead4a"/><stop offset="0.0567" stop-color="#b78830"/><stop offset="0.0895" stop-color="#976a1b"/><stop offset="0.1213" stop-color="#81550c"/><stop offset="0.1515" stop-color="#744803"/><stop offset="0.1787" stop-color="#6f4400"/><stop offset="0.529" stop-color="#8b6a33"/><stop offset="0.8654" stop-color="#533300"/><stop offset="0.9021" stop-color="#573500"/><stop offset="0.9362" stop-color="#623d00"/><stop offset="0.9691" stop-color="#754900"/><stop offset="0.9926" stop-color="#875500"/></linearGradient><linearGradient id="linear-gradient-71" x1="261.9766" y1="344.9585" x2="261.9878" y2="344.9585" gradientUnits="userSpaceOnUse"><stop offset="0" stop-color="#fffc97"/><stop offset="0.076" stop-color="#d1c76f"/><stop offset="0.1606" stop-color="#a59248"/><stop offset="0.2399" stop-color="#816929"/><stop offset="0.3115" stop-color="#684b12"/><stop offset="0.373" stop-color="#583905"/><stop offset="0.4172" stop-color="#533300"/><stop offset="0.5828" stop-color="#b0791e"/><stop offset="0.634" stop-color="#bc8d31"/><stop offset="0.7387" stop-color="#dcc261"/><stop offset="0.8433" stop-color="#fffc97"/><stop offset="0.98" stop-color="#fff"/></linearGradient><linearGradient id="linear-gradient-72" x1="248.6976" y1="303.736" x2="258.08" y2="347.6018" gradientUnits="userSpaceOnUse"><stop offset="0.0184" stop-color="#f5b73c"/><stop offset="0.227" stop-color="#624a1f"/><stop offset="0.2529" stop-color="#7a6541"/><stop offset="0.301" stop-color="#a2947a"/><stop offset="0.3477" stop-color="#c3baaa"/><stop offset="0.3917" stop-color="#ddd8cf"/><stop offset="0.4325" stop-color="#f0ede9"/><stop offset="0.4688" stop-color="#fbfaf9"/><stop offset="0.4969" stop-color="#fff"/><stop offset="0.6074" stop-color="#fffc97"/><stop offset="0.6258" stop-color="#e8e084"/><stop offset="0.6581" stop-color="#c4b666"/><stop offset="0.691" stop-color="#a6944d"/><stop offset="0.7243" stop-color="#8f793a"/><stop offset="0.7579" stop-color="#7f652d"/><stop offset="0.7922" stop-color="#755a25"/><stop offset="0.8282" stop-color="#725622"/><stop offset="0.84" stop-color="#8b6827"/><stop offset="0.8585" stop-color="#ab802d"/><stop offset="0.8787" stop-color="#c69433"/><stop offset="0.9005" stop-color="#dba437"/><stop offset="0.9249" stop-color="#eaaf3a"/><stop offset="0.954" stop-color="#f2b53b"/><stop offset="1" stop-color="#f5b73c"/></linearGradient><linearGradient id="linear-gradient-73" x1="248.4964" y1="297.0744" x2="253.614" y2="350.9316" gradientUnits="userSpaceOnUse"><stop offset="0.0184" stop-color="#f5b73c"/><stop offset="0.3497" stop-color="#624a1f"/><stop offset="0.3613" stop-color="#6c5221"/><stop offset="0.3742" stop-color="#725622"/><stop offset="0.3843" stop-color="#8b6827"/><stop offset="0.4002" stop-color="#ab802d"/><stop offset="0.4175" stop-color="#c69433"/><stop offset="0.4362" stop-color="#dba437"/><stop offset="0.4571" stop-color="#eaaf3a"/><stop offset="0.4821" stop-color="#f2b53b"/><stop offset="0.5215" stop-color="#f5b73c"/><stop offset="0.5444" stop-color="#f8cd59"/><stop offset="0.5717" stop-color="#fbe274"/><stop offset="0.5993" stop-color="#fdf088"/><stop offset="0.6274" stop-color="#fff993"/><stop offset="0.6564" stop-color="#fffc97"/><stop offset="0.6688" stop-color="#fffc9f"/><stop offset="0.7286" stop-color="#fffdc1"/><stop offset="0.7895" stop-color="#fffedc"/><stop offset="0.8511" stop-color="ivory"/><stop offset="0.914" stop-color="#fffffb"/><stop offset="0.98" stop-color="#fff"/></linearGradient><linearGradient id="linear-gradient-74" x1="242.4662" y1="324.4487" x2="257.8988" y2="324.4487" gradientUnits="userSpaceOnUse"><stop offset="0" stop-color="#fffbcc"/><stop offset="0.0144" stop-color="#fef7c0"/><stop offset="0.0746" stop-color="#f9e691"/><stop offset="0.1208" stop-color="#f6db74"/><stop offset="0.1472" stop-color="#f5d769"/><stop offset="0.1551" stop-color="#edd065"/><stop offset="0.2164" stop-color="#b69c47"/><stop offset="0.2761" stop-color="#89712f"/><stop offset="0.3329" stop-color="#65501c"/><stop offset="0.386" stop-color="#4c380e"/><stop offset="0.434" stop-color="#3c2906"/><stop offset="0.4724" stop-color="#372403"/><stop offset="0.638" stop-color="#875500"/><stop offset="0.7219" stop-color="#c7b052"/><stop offset="0.7914" stop-color="#ff9"/><stop offset="0.8708" stop-color="#eed688"/><stop offset="1" stop-color="#875500"/></linearGradient><linearGradient id="linear-gradient-75" x1="264.1867" y1="296.731" x2="226.736" y2="300.8139" gradientUnits="userSpaceOnUse"><stop offset="0.0184" stop-color="#f5b73c"/><stop offset="0.2638" stop-color="#896427"/><stop offset="0.362" stop-color="#875500"/><stop offset="0.4129" stop-color="#7b5613"/><stop offset="0.4658" stop-color="#74561e"/><stop offset="0.5215" stop-color="#725622"/><stop offset="0.5546" stop-color="#7b5d24"/><stop offset="0.6087" stop-color="#936f29"/><stop offset="0.6769" stop-color="#bb8c30"/><stop offset="0.756" stop-color="#f1b43b"/><stop offset="0.7607" stop-color="#f5b73c"/><stop offset="0.7936" stop-color="#f8cf5b"/><stop offset="0.8304" stop-color="#fbe476"/><stop offset="0.8677" stop-color="#fdf38a"/><stop offset="0.9056" stop-color="#fffc95"/><stop offset="0.9448" stop-color="#ff9"/></linearGradient><linearGradient id="linear-gradient-76" x1="246.772" y1="294.6713" x2="251.7678" y2="306.9781" gradientUnits="userSpaceOnUse"><stop offset="0" stop-color="#d5a656"/><stop offset="0.013" stop-color="#d7ab59"/><stop offset="0.1013" stop-color="#e5c96d"/><stop offset="0.1881" stop-color="#eedf7b"/><stop offset="0.272" stop-color="#f4ec83"/><stop offset="0.3497" stop-color="#f6f086"/><stop offset="0.7301" stop-color="#9c602b"/><stop offset="0.9933" stop-color="#3e1900"/></linearGradient><linearGradient id="linear-gradient-77" x1="258.8048" y1="269.8463" x2="259.9014" y2="296.531" gradientUnits="userSpaceOnUse"><stop offset="0" stop-color="#372403"/><stop offset="0.0798" stop-color="#a26d2b"/><stop offset="0.113" stop-color="#9e6a29"/><stop offset="0.1461" stop-color="#926122"/><stop offset="0.1792" stop-color="#7e5317"/><stop offset="0.212" stop-color="#623e08"/><stop offset="0.227" stop-color="#533300"/><stop offset="0.2501" stop-color="#593702"/><stop offset="0.2797" stop-color="#694307"/><stop offset="0.3129" stop-color="#83570f"/><stop offset="0.3486" stop-color="#a8731b"/><stop offset="0.3558" stop-color="#b0791e"/><stop offset="0.3844" stop-color="#cba547"/><stop offset="0.4187" stop-color="#e7d472"/><stop offset="0.4451" stop-color="#f8f18d"/><stop offset="0.4601" stop-color="#fffc97"/><stop offset="0.4669" stop-color="#fffca4"/><stop offset="0.4794" stop-color="#fffdc6"/><stop offset="0.496" stop-color="#fffffc"/><stop offset="0.4969" stop-color="#fff"/><stop offset="0.5399" stop-color="#fffc97"/><stop offset="0.552" stop-color="#f7ef8b"/><stop offset="0.5745" stop-color="#e3cd6c"/><stop offset="0.6044" stop-color="#c2973a"/><stop offset="0.6196" stop-color="#b0791e"/><stop offset="0.6479" stop-color="#8b5d12"/><stop offset="0.6764" stop-color="#6c4608"/><stop offset="0.7007" stop-color="#5a3802"/><stop offset="0.7178" stop-color="#533300"/><stop offset="0.7735" stop-color="#724c0f"/><stop offset="0.8446" stop-color="#93671f"/><stop offset="0.8834" stop-color="#a07125"/><stop offset="1" stop-color="#372403"/></linearGradient><linearGradient id="linear-gradient-78" x1="249.7212" y1="290.2576" x2="261.418" y2="290.2576" xlink:href="#linear-gradient-77"/><linearGradient id="linear-gradient-79" x1="238.6558" y1="285.7139" x2="255.4912" y2="285.7139" gradientUnits="userSpaceOnUse"><stop offset="0" stop-color="#fff"/><stop offset="0.2025" stop-color="#896427"/><stop offset="0.2671" stop-color="#78571f"/><stop offset="0.3949" stop-color="#4b340c"/><stop offset="0.4478" stop-color="#372403"/><stop offset="0.4662" stop-color="#432e0b"/><stop offset="0.5029" stop-color="#543e16"/><stop offset="0.5424" stop-color="#5f471d"/><stop offset="0.589" stop-color="#624a1f"/><stop offset="0.6438" stop-color="#654c20"/><stop offset="0.6905" stop-color="#705322"/><stop offset="0.734" stop-color="#815f25"/><stop offset="0.7485" stop-color="#896427"/><stop offset="0.8957" stop-color="#c3922e"/><stop offset="0.9933" stop-color="#d9b749"/></linearGradient><linearGradient id="linear-gradient-80" x1="223.4407" y1="297.8093" x2="248.7314" y2="297.8093" xlink:href="#linear-gradient-70"/><linearGradient id="linear-gradient-81" x1="228.0865" y1="293.0397" x2="249.8281" y2="293.0397" xlink:href="#linear-gradient-70"/><linearGradient id="linear-gradient-82" x1="247.0649" y1="305.1554" x2="261.6768" y2="270.4523" gradientUnits="userSpaceOnUse"><stop offset="0.0184" stop-color="#875500"/><stop offset="0.3497" stop-color="#624a1f"/><stop offset="0.3613" stop-color="#6c5221"/><stop offset="0.3742" stop-color="#725622"/><stop offset="0.3843" stop-color="#8b6827"/><stop offset="0.4002" stop-color="#ab802d"/><stop offset="0.4175" stop-color="#c69433"/><stop offset="0.4362" stop-color="#dba437"/><stop offset="0.4571" stop-color="#eaaf3a"/><stop offset="0.4821" stop-color="#f2b53b"/><stop offset="0.5215" stop-color="#f5b73c"/><stop offset="0.5444" stop-color="#f8cd59"/><stop offset="0.5717" stop-color="#fbe274"/><stop offset="0.5993" stop-color="#fdf088"/><stop offset="0.6274" stop-color="#fff993"/><stop offset="0.6564" stop-color="#fffc97"/><stop offset="0.6688" stop-color="#fffc9f"/><stop offset="0.7286" stop-color="#fffdc1"/><stop offset="0.7895" stop-color="#fffedc"/><stop offset="0.8511" stop-color="ivory"/><stop offset="0.914" stop-color="#fffffb"/><stop offset="0.98" stop-color="#fff"/></linearGradient><linearGradient id="linear-gradient-83" x1="251.0271" y1="311.5523" x2="267.2938" y2="270.4287" xlink:href="#linear-gradient-82"/><linearGradient id="linear-gradient-84" x1="248.3489" y1="311.5235" x2="231.7164" y2="272.227" xlink:href="#linear-gradient-82"/><linearGradient id="linear-gradient-85" x1="254.3824" y1="296.2231" x2="225.4127" y2="298.9647" xlink:href="#linear-gradient-73"/><linearGradient id="linear-gradient-86" x1="245.1853" y1="315.9524" x2="243.4982" y2="257.7476" xlink:href="#linear-gradient-82"/><linearGradient id="linear-gradient-87" x1="245.5825" y1="375.767" x2="263.5916" y2="375.767" gradientUnits="userSpaceOnUse"><stop offset="0" stop-color="#7d7970"/><stop offset="0.2333" stop-color="#46453f"/><stop offset="0.2734" stop-color="#494842"/><stop offset="0.3079" stop-color="#53534d"/><stop offset="0.3404" stop-color="#65645f"/><stop offset="0.3717" stop-color="#7d7c78"/><stop offset="0.402" stop-color="#9c9b98"/><stop offset="0.4317" stop-color="#c2c2c0"/><stop offset="0.4603" stop-color="#eee"/><stop offset="0.47" stop-color="#fff"/><stop offset="0.6135" stop-color="#e3f3f4"/><stop offset="0.8167" stop-color="#8c8f91"/><stop offset="0.9926" stop-color="#68655e"/></linearGradient><linearGradient id="linear-gradient-88" x1="261.6449" y1="375.0051" x2="246.2914" y2="378.4779" gradientUnits="userSpaceOnUse"><stop offset="0" stop-color="#fff"/><stop offset="1"/></linearGradient><linearGradient id="linear-gradient-89" x1="255.8814" y1="375.4346" x2="267.5111" y2="375.4346" gradientUnits="userSpaceOnUse"><stop offset="0" stop-color="#7d7970"/><stop offset="0.2333" stop-color="#46453f"/><stop offset="0.47" stop-color="#3e3f51"/><stop offset="0.6687" stop-color="#808589"/><stop offset="0.8167" stop-color="#8c8f91"/><stop offset="0.9926" stop-color="#68655e"/></linearGradient><linearGradient id="linear-gradient-90" x1="248.0811" y1="357.759" x2="252.8131" y2="357.759" gradientUnits="userSpaceOnUse"><stop offset="0" stop-color="#3e3f51"/><stop offset="0.4277" stop-color="#444443"/><stop offset="0.5215" stop-color="#46453f"/><stop offset="1" stop-color="#7e92c5"/></linearGradient><linearGradient id="linear-gradient-91" x1="251.8285" y1="370.2924" x2="254.7528" y2="355.4879" xlink:href="#linear-gradient-90"/><linearGradient id="linear-gradient-92" x1="266.1652" y1="401.7474" x2="252.4574" y2="352.0336" gradientUnits="userSpaceOnUse"><stop offset="0" stop-color="#8c8f91"/><stop offset="0.0106" stop-color="#888a8b"/><stop offset="0.0562" stop-color="#7a7a77"/><stop offset="0.1083" stop-color="#706e69"/><stop offset="0.1715" stop-color="#6a6761"/><stop offset="0.2774" stop-color="#68655e"/><stop offset="0.3413" stop-color="#8b8b87"/><stop offset="0.4417" stop-color="#c9cdcf"/><stop offset="0.5521" stop-color="#e2e4e4"/><stop offset="0.6258" stop-color="#fff"/><stop offset="1" stop-color="#6d6f6f"/></linearGradient><linearGradient id="linear-gradient-93" x1="266.4703" y1="365.6808" x2="260.8042" y2="352.1551" xlink:href="#linear-gradient-90"/><linearGradient id="linear-gradient-94" x1="264.7459" y1="370.6151" x2="259.8109" y2="354.8963" xlink:href="#linear-gradient-90"/><linearGradient id="linear-gradient-95" x1="257.5841" y1="337.3322" x2="263.1695" y2="383.4728" xlink:href="#linear-gradient-92"/><linearGradient id="linear-gradient-96" x1="242.1442" y1="351.4018" x2="266.6361" y2="348.5687" xlink:href="#linear-gradient-72"/><linearGradient id="linear-gradient-97" x1="243.5323" y1="349.493" x2="266.1885" y2="349.493" xlink:href="#linear-gradient-77"/></defs><g id="Feather"><path d="M284.9824,188.707c.74,19.3633-5.2934,41.8965-18.7065,57.3q1.5366.7985,3.1157,1.5225c.04-.4356,1.0693-1.3828,1.3179-1.7227a73.0133,73.0133,0,0,0,4.0688-6.26,92.3816,92.3816,0,0,0,7.0742-15.209,82.1615,82.1615,0,0,0,5.1031-35c-2.6714-38.2012-14.6509-54.751-16.0367-56.8262A142.6732,142.6732,0,0,1,284.9824,188.707Z" transform="translate(-76.3199 -18.0107)" fill="url(#linear-gradient)"/><path d="M137.3032,201.7441c9.9756,4.7989,18.3516,7.0313,29.3194,8.6866,14.7119,2.22,25.3818,3.4355,36.2744,8.2529,11.1933,4.95,21.687,12.6719,25.5136,21.1152.9952-.5215-.1455-4.6689.7408-5.3369a28.5422,28.5422,0,0,1-3.7246-3.1074,38.9984,38.9984,0,0,0-5.4048-5.458,56.6015,56.6015,0,0,0-13.8316-8.3731c-11.2763-4.9131-23.74-6.6289-35.83-8.8925-11.7094-2.1934-23.8046-4.5665-34.4345-9.8829-4.188-2.0937-12.08-5.3574-17.9287-19.5586C118.0063,179.2109,120.5991,193.7109,137.3032,201.7441Z" transform="translate(-76.3199 -18.0107)" fill="url(#linear-gradient-2)"/><path d="M182.7407,59.8877c1.61-.544,9.11,6.7627,10.3775,7.9619a45.6583,45.6583,0,0,1,9.4926,12.3828c4.0948,8.0235,5.3506,18.0166,2.5293,26.5528.5577.0527,1.19,1.6748,1.7515,1.707-.2861-.5117.9111-4.5342.9971-5.0781a36.92,36.92,0,0,0,.4009-7.3692,37.8255,37.8255,0,0,0-3.9971-15.3242A43.3725,43.3725,0,0,0,194.2744,67.873c-1.2148-1.08-10.562-8.6992-11.5337-7.9853C182.709,59.8984,182.7383,59.89,182.7407,59.8877Z" transform="translate(-76.3199 -18.0107)" fill="url(#linear-gradient-3)"/><path d="M98.3975,37.5752c-.2217,4.0439.9135,9.0391,2.1713,12.8935,2.8965,8.9844,9.438,16.2647,16.97,21.7207A85.7956,85.7956,0,0,0,143.8,84.8887c18.1309,5.3593,22.1665,10.2627,22.7139,9.6211.6-1.2012-17.0435-10.3555-21.5142-11.8848-7.8057-2.6719-15.46-5.4736-22.5566-9.7725-8.126-4.9228-15.7227-11.4716-19.57-20.3017-4.7769-10.9629-3.3218-23.3379-2.3623-24.836C100.4985,27.7334,98.7817,30.5586,98.3975,37.5752Z" transform="translate(-76.3199 -18.0107)" fill="url(#linear-gradient-4)"/><path d="M303.6328,183.1152c-3.7432-5.4609-12.0342,1.6455-6.9849,4.43l.0079.0039c-.1695-.1025-2.5225-1.33.1372-4.3486,1.584-1.7979,4.9223-.4766,6.7929,1.8584,3.5078,4.1992,4.4834,11.2832,2.65,15.81-1.4858,3.74-6.7241,6.72-11.5879,9.5253a36.4768,36.4768,0,0,0-13.0864,10.6709c-11.665,15.6416-8.6084,30.0743-18.4136,37.9444a38.4645,38.4645,0,0,0-14.455,36.7187,3.7023,3.7023,0,0,0,4.9956-.9746c1.5566-1.8974,2.25-8.2959,4.3867-9.626,18.3989-11.4541,18.7632-32.4472,18.7632-32.4472s1.3418-17.6328,8.47-28.0508a67.98,67.98,0,0,1,16.15-17.0371,18.1015,18.1015,0,0,0,4.5947-3.7988C309.7358,199.1728,306.9468,187.9424,303.6328,183.1152Z" transform="translate(-76.3199 -18.0107)"/><path d="M152.7983,239.7988c-17.79,7.0674-27.3837,7.293-34.2963,4.2637-6.3086-2.7656-8.002-12.4434-6.3736-18.624,1.8345-6.9873,16.1236-5.958,11.208-.4717-.2607.292,2.6592-2.7617-2.5718-4.0918-3.0913-.7852-6.4477,2.0185-7.5747,5.1709-2.2085,5.7588.7662,12.3848,5.4986,15.1533a23.4437,23.4437,0,0,0,16.9292,3.2305c11.4824-2.1074,17.9184-5.7774,20.5923-6.8242C166.019,233.7676,154.0088,239.3184,152.7983,239.7988Z" transform="translate(-76.3199 -18.0107)" fill="url(#linear-gradient-5)"/><path d="M115.5225,116.8769s-8.773,2.9766-19.7906-3.66C82.248,105.0957,75.3262,88.8516,80.521,82.7988c0,0,1.8457-4.6064,8.3042-4.0508s5.3354,6.837.8975,7.1163c0,0-2.4566-.7627-.6905-3.1153,0,0-2.9258.749.0191,3.9424s8.6816-3.9336,4.0356-7.6562-12.3032-1.7491-16.0913,5.7773,9.1309,23.9707,19.3286,29.832,28.3272,5.9864,36.7349,6.9C133.0591,121.5449,117.5166,116.46,115.5225,116.8769Z" transform="translate(-76.3199 -18.0107)" fill="url(#linear-gradient-6)"/><path d="M281.4707,246.0137c3.3921-11.34,9.0127-19.25,11.9473-21.4912,5.4287-4.1456,12.91-8.1182,15.19-3.5049a3.0859,3.0859,0,0,1,.6192,3.9746c-1.2862,2.53-3.9708,1.1045-3.3477-.7422,0,0,.7065-.8711,1.3418.2285,0,0,.1885-1.3086-1.5571-.6348s.1162,4.1641,2.351,2.8868,2.7222-4.7061.3819-7.4717-10.9556-.209-14.9507,2.9717c-2.0142,1.6035-10.5342,12.4609-13.75,28.2929a53.4358,53.4358,0,0,1-7.73,18.8848c-4.13,6.6416-6.2143,7.8594-11.5146,12.7939a39.0053,39.0053,0,0,0,16.0839-17.3632C280.0937,257.3242,279.5669,252.3769,281.4707,246.0137Z" transform="translate(-76.3199 -18.0107)" fill="url(#linear-gradient-7)"/><path d="M231.7871,285.3711c-7.2075-4.8457-25.7637-14.6358-35.8017-13.9082-17.5425,1.2705-18.9385,8.5293-15.9981,9.8965s14.3106,3.873,14.8931,3.3437c.582-.5273,1.3364-2.7851-6.4575-5.5664,0,0-.1944.1738,1.57.9942s5.5429,3.81.9746,3.4121-12.4287-4.1651-8.1636-7.19,12.2378-7.3682,26.6851-1.7051c10.0547,3.94,27.4287,14.8477,34.1172,22.541C243.606,297.1894,242.7275,292.7266,231.7871,285.3711Z" transform="translate(-76.3199 -18.0107)" fill="url(#linear-gradient-8)"/><path d="M229.208,276.9912c-16.0273-24.8428-57.7021-37.917-80.0649-13.7978-6.3819,6.8828-11.53,12.9-8.3243,25.0517,2.3,8.7188,10.0547,14.4346,19.3116,12.3526,8.8193-1.9844,14.4663-10.9356,8.2036-17.8477-2.5122-2.7715-8.45-4.5977-10.6548-.9629-1.4551,2.4.6606,6.6484,3.7383,5.1963-4.7759-.6006-1.4912-8.8018,4.1748-5.6953,4.5893,2.5166,4.1064,7.3047,1.6709,12.5244-4.7383,10.1533-17.0376,6.7207-21.7471.8691-15.0117-18.6464,9.4209-37.3525,18.2676-40.3623C186.8794,246.4639,213.3906,259.7734,229.208,276.9912Zm-.2451-.2666c.03.0322.06.0645.0893.0977C229.0254,276.793,228.9961,276.76,228.9629,276.7246Z" transform="translate(-76.3199 -18.0107)" fill="url(#linear-gradient-9)"/><path d="M248.7544,285.31s11.9287-13.0791,16.51-24.1866c4.021-9.748,7.5992-19.7255,9.169-24.4316,7.2256-21.6543,22.7554-26.6846,22.7554-26.6846s-11.667,6.55-17.6377,17.6377c-6.2564,11.6192-3.5493,22.8291-3.7466,24.4s2.0347,7.834-8.2251,21.293C258.9131,284.707,248.7544,285.31,248.7544,285.31Z" transform="translate(-76.3199 -18.0107)" fill="url(#linear-gradient-10)"/><path d="M276.4443,247.6582s-.457-11.9717,4.4781-20.7451,13.7993-14.2559,13.7993-14.2559-9.23,8.499-12.8858,15.627S276.4443,247.6582,276.4443,247.6582Z" transform="translate(-76.3199 -18.0107)" fill="url(#linear-gradient-11)"/><path d="M235.6553,224.08s-13.5249-23.6387-28.5122-32.6553c-12.8936-7.7568-32.29-14.1338-41.6724-18.3994-9.3823-4.2637-28.269-11.332-38.5044-28.3906,0,0,13.4033,16.9375,31.3154,23.1513,0,0-15.5966-9.3818-20.5927-26.3193,0,0,11.332,15.2314,26.3193,20.1055,0,0-12.3066-7.19-17.4243-19.3741,0,0,12.185,14.5,29.4873,18.2774,17.0937,3.7314,21.5693,6.2129,34.9726,17.9111s18.2754,24.4922,18.2754,24.4922Z" transform="translate(-76.3199 -18.0107)" fill="url(#linear-gradient-12)"/><path d="M224.811,187.8916s18.062-46.3379-.7314-83.1621c0,0-7.5527-10.5059-14.4067-11.877a69.8316,69.8316,0,0,1,11.5141,40.5733c-.8223,23.8515-5.3931,31.68-5.3931,31.68S221.3066,181.4961,224.811,187.8916Z" transform="translate(-76.3199 -18.0107)" fill="url(#linear-gradient-13)"/><path d="M216.0376,166.3242s6.458-18.0332,5.727-37.042c-.5424-14.1064-9.748-33.874-9.748-33.874s7.6768,2.1934,12.9771,13.5254,7.311,31.0713,7.311,32.7158-3.8384,39.8447-7.4937,46.2422Z" transform="translate(-76.3199 -18.0107)" fill="url(#linear-gradient-14)"/><path d="M230.7817,210.0684s-3.7773-5.4834-11.6977-15.2315-23.6387-19.8613-37.6514-25.3447c-8.2529-3.23-17.4243-6.336-17.4243-6.336-14.7437-4.7519-24.126-17.9121-24.126-17.9121s4.874,9.0176,9.7481,13.77,13.16,10.2343,13.16,10.2343c-10.479-2.1933-19.8613-8.8945-19.8613-8.8945,6.9453,6.0928,22.0547,11.5762,27.9033,13.6475s29.4873,12.0625,29.4873,12.0625c21.7686,10.1181,29.2535,25.2334,31.437,29.9756a6.2527,6.2527,0,0,0,1.6451,1.8271Z" transform="translate(-76.3199 -18.0107)" fill="url(#linear-gradient-15)"/><path d="M228.71,202.8789s-3.959-12.1562-24.4917-27.0508a225.1072,225.1072,0,0,0-20.5889-11.1494c-5.2212-2.4609-13.1631-3.2285-22.3018-8.7119-3.164-1.8984-7.311-4.2647-11.0879-8.6514,0,0,4.752,8.4082,15.84,14.7442,0,0,15.05,6.0927,22.9072,9.748a105.6429,105.6429,0,0,1,29.4873,21.2012A69.2247,69.2247,0,0,1,230.05,208.3623Z" transform="translate(-76.3199 -18.0107)" fill="url(#linear-gradient-16)"/><path d="M240.3774,247.7451s-7.1279-20.2871-35.913-31.2529c-17.6631-6.7285-41.8575-9.41-60.6221-28.0528-5.44-5.4042-11.7583-20.41-12.4893-31.01,0,0,5.4053,19.0937,15.231,27.9023,10.6011,9.5049,23.6387,14.6231,28.7563,15.5977a35.5422,35.5422,0,0,0,9.0166.6084s-19.2827-3.0957-31.0713-20.1045a49.412,49.412,0,0,1-8.6513-25.1016s6.458,13.4043,19.6177,20.1055,32.8994,8.6514,47.0336,17.5469c10.9,6.8584,24.7354,23.3945,25.71,38.1386A66.8423,66.8423,0,0,0,240.3774,247.7451Z" transform="translate(-76.3199 -18.0107)" fill="url(#linear-gradient-17)"/><path d="M215.916,166.8115s-32.8667-39.86-70.9624-55.8623c-6.0234-2.53-23.105-8.84-38.6338-4.3887,0,0,10.1436-5.4834,21.9317-4.6611a60.8477,60.8477,0,0,1,20.2871,4.9346s-20.5611-10.1426-22.2061-34.2676c0,0-6.8535-12.6113-6.0312-23.0293,0,0,3.6191,12.6064,12.3921,18.82a135.8121,135.8121,0,0,0,20.4707,11.332S128.1519,68.79,124.9619,50.36c-2.4673-14.2558,4.624-19.288,4.624-19.288S127.3931,43.5,132.3276,51.1768a39.8512,39.8512,0,0,1-2.1342-17.1739c.2768-2.6094,4.6987-14.164,10.6689-15.9922,0,0-5.61,7.5782-5.793,14.8887a20.07,20.07,0,0,0,3.29,11.8809,22.3505,22.3505,0,0,1,4.5693-19.5576s-3.8384,13.16,2.01,22.8476,13.16,12.0625,13.16,12.0625l3.29,1.4629-1.0967-1.8281s9.26,3.5332,13.0986,6.6406c0,0,20.105,12.5508,25.6494,30.8281,0,0-5.4834-18.8261-15.353-24.3095,0,0,12.6113.7314,26.2583,17.6074,9.374,11.5927,13.4033,33.3867,12.916,47.8867C222.4126,151.7725,215.916,166.8115,215.916,166.8115Z" transform="translate(-76.3199 -18.0107)" fill="url(#linear-gradient-18)"/><path d="M224.4453,188.3789s8.4688-23.6387,5.3613-56.1729c-1.8427-19.2958-11.6972-37.5292-11.6972-37.5292s7.4785,6.7441,14.1953,19.7392c2.5893,5.0108,6.8989,22.94,7.7031,27.8086,1.1011,6.6582,2.4263,15.4121,2.5322,19.53,0,0-.792-30.7666-7.4936-42.586,0,0,13.5859,16.8155,15.9009,47.3379,1.5239,20.0879-6.397,50.08-16.6324,55.5635C234.3149,222.07,225.542,195.3242,224.4453,188.3789Z" transform="translate(-76.3199 -18.0107)" fill="url(#linear-gradient-19)"/><path d="M233.4619,221.4s14.0127-17.06,17.4854-37.3477-1.6446-47.7031-9.5039-64.7011c-5.7-12.3272-14.2564-22.6641-19.0083-27.0508,0,0,15.5356,9.5039,27.416,33.9961s11.5146,40.7578,11.5146,40.7578,3.4727-36.0059-15.5361-60.8633c0,0-9.5039-13.707-15.17-17.7285,0,0,5.7436,2.0683,17.1806,14.7441,11.8194,13.0977,16.3286,26.6533,19.4956,40.209,2.74,11.7285,5.91,43.7442-3.0459,67.1387,0,0-11.332,38.9316-23.5776,46.2422C240.7124,256.7969,237.3,246.9883,233.4619,221.4Z" transform="translate(-76.3199 -18.0107)" fill="url(#linear-gradient-20)"/><path d="M247.353,288.0508A123.4385,123.4385,0,0,0,268.7983,253.08c13.5254-34.1778,10.2334-50.5694,8.2857-62.2647,0,0-1.4619,25.9541-8.9561,40.21,0,0,8.9561-27.5986,8.59-49.166-.3438-20.292-4.752-30.7051-7.128-35.2754,0,0,6.58,26.5029,2.376,45.6933a39.6265,39.6265,0,0,0-1.4619-11.1484s-4.083,20.0117-7.0986,30.4287c0,0-12.9756,33.08-21.9317,42.7666C241.4741,254.3242,243.6973,282.3848,247.353,288.0508Z" transform="translate(-76.3199 -18.0107)"/><path d="M237.3311,240.8955S227.248,224.08,210.0674,217.1348c-14.7632-5.9678-35.3521-10.7481-42.2818-13.7989-12.2456-5.3925-26.1367-15.2617-32.5336-32.3515l-2.1929-6.2139S139.791,184.51,154.3823,193.01c12.9488,7.541,21.08,8.955,27.3858,9.4121a45.35,45.35,0,0,1,7.1279.8222c2.4673.64,18.9067,4.3692,35.458,20.3789C238.3359,237.1484,237.3311,240.8955,237.3311,240.8955Z" transform="translate(-76.3199 -18.0107)" fill="url(#linear-gradient-21)"/><path d="M236.1431,236.3262a52.3525,52.3525,0,0,0-17.6514-29.5889c-7.45-6.1738-19.1777-13.9111-31.332-18.2061-6.3355-2.2392-18.8868-4.66-27.9034-11.1191a42.48,42.48,0,0,1-13.312-16.5713s1.6451,12.8858,12.8853,25.4971,24.583,14.165,34.3613,17.2715,22.207,10.51,30.6148,17.9121A59.0844,59.0844,0,0,1,236.1431,236.3262Z" transform="translate(-76.3199 -18.0107)" fill="url(#linear-gradient-22)"/><path d="M233.0356,221.6133s-5.3916-13.2207-15.9013-21.9024a64.2444,64.2444,0,0,0-21.9326-11.6972s-20.3843-5.6866-26.8677-8.8047c-9.565-4.6-15.81-10.0518-19.0083-14.5293,0,0,6.2978,14.2187,29.1826,20.4092a115.8015,115.8015,0,0,1,28.269,12.0634c6.1114,3.6153,21.08,12.1846,28.1773,32.502Z" transform="translate(-76.3199 -18.0107)" fill="url(#linear-gradient-23)"/><path d="M213.3877,161.2978S182.6816,130.5,166.3237,120.082s-36.2807-18.1855-51.8164-16.1748c0,0,15.2617-5.331,41.4893,6.0313a128.088,128.088,0,0,1,21.2021,10.2353c9.5952,6.0313,22.481,15.17,26.5933,19.7393C203.792,139.9131,208.7271,145.5791,213.3877,161.2978Z" transform="translate(-76.3199 -18.0107)" fill="url(#linear-gradient-24)"/><path d="M203.7007,139s-18.5518-16.9072-35.7324-24.9492c-4.0308-1.8867-10.6309-4.9317-13.3423-5.8487-6.4883-2.1933-17.9829-11.1-21.75-18.46a52.6063,52.6063,0,0,1-4.9351-15.5352S136.562,89.62,149.1431,94.7988c9.3437,3.8467,23.167,9.2969,33.3862,17.1807,8.53,6.58,18.2471,19.3437,18.2471,19.3437Z" transform="translate(-76.3199 -18.0107)" fill="url(#linear-gradient-25)"/><path d="M200.0454,129.4951s-12.7944-16.7236-23.7607-23.4863-19.8487-9.62-23.2124-11.24c-9.0469-4.3564-18.003-10.9667-23.4864-19.831A66.7721,66.7721,0,0,1,122.001,55.93,29.6783,29.6783,0,0,0,139.09,74.0234c12.6656,5.333,28.7564,11.4844,34.7881,18.3379,7.4453,8.461,16.023,18.7656,17.12,20.3184C192.0947,114.2344,200.0454,129.4951,200.0454,129.4951Z" transform="translate(-76.3199 -18.0107)" fill="url(#linear-gradient-26)"/><path d="M157.1851,75.4248c-11.2408-5.6357-20.9278-13.19-25.1314-22.2373a42.0865,42.0865,0,0,1-4.1128-16.541s-4.6606,13.16,2.1021,23.8515,15.0786,13.8,19.6479,16.3584,17.3638,9.7784,20.1968,12.0635a24.9348,24.9348,0,0,1,3.7466,3.4727S165.312,79.5,157.1851,75.4248Z" transform="translate(-76.3199 -18.0107)" fill="url(#linear-gradient-27)"/><path d="M170.9536,85.9951s-5.605-16.1748-15.353-23.6084c-6.5713-5.01-10.6006-6.7314-14.0733-9.8389s-8.5483-9.9492-8.3408-18.3623a27.8018,27.8018,0,0,1,3.7715-12.8007s-4.9351,4.7519-5.5747,14.7129a40.2927,40.2927,0,0,0,4.9351,21.9335c2.1928,3.7461,11.8545,9.8741,14.6875,11.793s10.0293,6.0381,14.8305,12.668a44.9,44.9,0,0,1,3.5332,5.4834l2.4981,2.3154Z" transform="translate(-76.3199 -18.0107)" fill="url(#linear-gradient-28)"/><path d="M177.93,96.9619a41.1274,41.1274,0,0,0-4.2954-19.1006c-4.8433-9.32-14.7129-15.9-19.4654-17.9111,0,0,8.4078,6.3057,12.52,13.9814A57.4878,57.4878,0,0,1,172.05,90.8994S177.6553,96.0478,177.93,96.9619Z" transform="translate(-76.3199 -18.0107)" fill="url(#linear-gradient-29)"/><path d="M155.54,59.4023S143.2939,56.0205,138.999,43.5a19.0542,19.0542,0,0,1,2.7417-15.0781s-1.9219,8.9013.1826,16.1758C144.7007,54.1982,155.54,59.4023,155.54,59.4023Z" transform="translate(-76.3199 -18.0107)" fill="url(#linear-gradient-30)"/><path d="M178.5693,97.9668s.0913-15.4443-5.666-23.3945a92.4035,92.4035,0,0,0-10.6924-12.52,117.6625,117.6625,0,0,1,15.9927,14.8964c7.22,8.3155,11.5147,24.7657,10.0527,32.5332C188.2563,109.4814,180.9453,100.0684,178.5693,97.9668Z" transform="translate(-76.3199 -18.0107)" fill="url(#linear-gradient-31)"/><path d="M198.8569,126.8457s6.3975-16.3594-2.1015-32.0772-23.395-27.69-34.5445-32.7167c0,0,16.2671,8.1337,23.8521,24.9482,0,0,4.6606,13.3428,2.1933,22.4814C188.2563,109.4814,198.8569,125.2,198.8569,126.8457Z" transform="translate(-76.3199 -18.0107)" fill="url(#linear-gradient-32)"/><path d="M204.249,137.9941s6.6714-20.5625-3.3813-37.4687c0,0,2.01,11.1494,1.0967,17.4551a43.8157,43.8157,0,0,1-2.376,9.7783S204.1577,137.3545,204.249,137.9941Z" transform="translate(-76.3199 -18.0107)" fill="url(#linear-gradient-33)"/><path d="M204.7974,139.7305a49.8391,49.8391,0,0,0,1.8579-26.41c-2.1929-10.2353-5.97-13.3428-5.97-13.3428s-1.4624-12.0019-9.5044-21.2929c0,0,13.3256,9.1357,19.374,28.4209,6.3057,20.1054,1.645,38.748-1.0054,42.038C209.5493,149.1435,207.1733,142.4727,204.7974,139.7305Z" transform="translate(-76.3199 -18.0107)" fill="url(#linear-gradient-34)"/><path d="M210.189,150.6973s7.22-18.461,2.2846-38.2911c0,0-3.7465-20.1054-18.6425-32.5332l-3.7471-2.4677-2.1021-1.919s17.8814,6.6406,26.0454,25.7705c11.0328,25.8535,6.7881,42.97,6.0508,46.6729a90.41,90.41,0,0,1-4.68,15.6523Z" transform="translate(-76.3199 -18.0107)" fill="url(#linear-gradient-35)"/><path d="M225.0547,189.3535s9.4433-23.5781,7.0674-49.166c-2.38-25.625-9.1387-37.2852-9.1387-37.2852s6.7622,9.5039,8.2246,14.9864,6.7627,16.6328,6.0313,38.2-10.1133,42.5254-10.1133,42.5254Z" transform="translate(-76.3199 -18.0107)" fill="url(#linear-gradient-36)"/><path d="M228.6489,200.1367s10.2354-26.3183,9.3218-51.9072a96.2357,96.2357,0,0,0-5.4834-29.0606,159.73,159.73,0,0,1,6.9453,25.5879c2.376,13.5254,1.7466,18.751,1.645,22.2979-.1826,6.3974-3.8989,25.041-11.0273,40.5762Z" transform="translate(-76.3199 -18.0107)" fill="url(#linear-gradient-37)"/><path d="M230.416,209.459s11.0274-23.0293,12.4893-46.791c0,0,.1831-19.5567-3.29-32.5332,0,0,7.3106,17.5468,7.3106,29.9746s-3.229,37.0429-15.4136,54.832Z" transform="translate(-76.3199 -18.0107)" fill="url(#linear-gradient-38)"/><path d="M232.731,219.6934s12.5581-14.1036,15.6577-31.0713c3.4726-19.0078-.5484-33.0811-.5484-33.0811s.3658,16.2656-2.5586,28.877-6.9458,24.4316-13.16,30.6455Z" transform="translate(-76.3199 -18.0107)" fill="url(#linear-gradient-39)"/><path d="M233.4619,221.6435s19.6787-22.9687,20.2271-49.8369A114.8241,114.8241,0,0,0,233.4014,103.45s22.0542,23.1221,26.7143,63.97a51.51,51.51,0,0,1,.0713,11.7324c-1.6948,12.7715-8.9038,37.57-24.7754,53.8233Z" transform="translate(-76.3199 -18.0107)" fill="url(#linear-gradient-40)"/><path d="M235.9912,233.7637s7.5254-4.295,14.0225-17.5743c3.8979-7.9677,19.1787-39.8125,12.0215-74.2646C255.91,112.44,239.4326,96.1387,239.4326,96.1387a60.9306,60.9306,0,0,1,11.8194,13.16,99.7652,99.7652,0,0,1,10.9663,22.6641c7.1914,21.0605,6.2846,36.8857,5.727,49.8965-.5483,12.7949-5.9707,46.9121-27.7812,72.3789C240.1641,254.2383,235.4429,236.8711,235.9912,233.7637Z" transform="translate(-76.3199 -18.0107)" fill="url(#linear-gradient-41)"/><path d="M241.26,255.1523a127.09,127.09,0,0,0,24.37-46.6679c5.2295-18.7461,5.0566-23.1524,5.0566-23.1524a46.8269,46.8269,0,0,1,0,13.16c-1.5229,10.7226-13.4643,44.9013-28.0864,65.1894Z" transform="translate(-76.3199 -18.0107)" fill="url(#linear-gradient-42)"/><path d="M242.2354,267.2148s15.7182-25.832,24.6132-49.8964c6.7788-18.34,8.4077-43.6836,6.7627-55.7461a89.0791,89.0791,0,0,1,1.645,25.039c-.9287,13.8711-7.5131,44.334-11.5146,53.7364-5.0566,11.88-17.9121,32.0458-19.9224,34.0566Z" transform="translate(-76.3199 -18.0107)" fill="url(#linear-gradient-43)"/><path d="M246.3779,284.6387s13.5264-14.0371,19.74-28.9385c8.4526-20.27,11.6655-38.4766,10.7226-55.0147,0,0-.792,19.5567-9.5649,37.1026,0,0-10.1748,25.6494-22.1157,37.8349C245.16,275.623,245.83,283.3594,246.3779,284.6387Z" transform="translate(-76.3199 -18.0107)" fill="url(#linear-gradient-44)"/><path d="M176.5015,234.86s-20.2871-6.3056-20.2915-28.8134c-.0025-13.709,10.2036-19.6875,18.1557-15.84,7.5547,3.6543,2.7412,11.0274.3653,11.3926,0,0,4.2646-4.9355.2436-8.9561-3.9292-3.93-9.5083-.3652-10.7226,3.4112-1.0967,3.4121-1.2183,10.8457,7.6767,14.6221s29.2456,6.6376,44.1089,13.4033c11.5933,5.2773,19.13,14.7441,22.1768,19.2519l2.3149,11.82s-14.3779-9.6269-22.0547-13.2822S188.3818,231.875,176.5015,234.86Z" transform="translate(-76.3199 -18.0107)" fill="url(#linear-gradient-45)"/><path d="M237.9707,242.3574s-13.3428-15.9-31.437-21.293c-14.4443-4.3037-39.6011-5.3916-43.5-15.6269-3.2637-8.5674,2.6807-16.6934,9.9912-14.6211a5.2366,5.2366,0,0,1,4.1738,4.8428c.2417,3.3174-1.3711,4.8437-1.3711,4.8437s3.564-3.0166,1.3711-7.0371-10.144-5.5742-14.5307.2744c0,0-5.3,5.5742-3.6553,16.9981,0,0,3.3691,8.2,22.1157,9.7783,27.1416,2.2842,35.7622,8.1943,43.8042,14.2861a84.1524,84.1524,0,0,1,13.7691,13.4043Z" transform="translate(-76.3199 -18.0107)" fill="url(#linear-gradient-46)"/><path d="M159.7437,213.8457s5.3613,5.9707,18.2773,6.9453,27.812,3.4717,41.4893,11.9707c9.1289,5.6729,20.41,15.8106,20.41,15.8106l.4878,5.7265s-16.82-16.082-38.87-22.0547a117.7358,117.7358,0,0,0-32.9863-3.9629A34.7609,34.7609,0,0,1,159.7437,213.8457Z" transform="translate(-76.3199 -18.0107)" fill="url(#linear-gradient-47)"/><path d="M174.6094,233.4629s23.395-3.29,48.6177,9.8691l14.0122,9.2617S221.8867,237.85,203.1221,233.585c0,0-25.28-6.127-33.2-3.9336C169.9219,229.6514,172.9033,231.8789,174.6094,233.4629Z" transform="translate(-76.3199 -18.0107)" fill="url(#linear-gradient-48)"/><path d="M220.1157,277.0273c-5.519-5.0371-14.5371-11.8955-27.8545-13.2871-22.63-2.3662-27.4341,9.71-27.4341,9.71s3.919-11.4541,27.0547-11.8272c0,0,5.8155.125,14.5391,3.7354,0,0-11.6313-5.8516-18.3315-6.8477,0,0,10.24-.872,25.79,6.2246a71.1685,71.1685,0,0,1,8.2178,4.4825s-11.1255-11.9522-24.021-16.8076-22.63-5.1036-24.02-1.9922c-1.3907,3.1132,1.8959,3.3613,1.8959,3.3613s-4.4145-.2481-2.7812-4.4815c1.9258-4.99,13.9941-5.707,27.27-1.2128,15.55,5.2627,40.7324,24.7646,43.1348,29.122,1.5014,2.7227,4.021,15.3526,5.1177,22.7852C249.0864,302.6562,232.731,288.5381,220.1157,277.0273Z" transform="translate(-76.3199 -18.0107)"/><path d="M240.1636,252.959s-18.3115-17.999-39.4785-19.9834c-35.0928-3.29-41.6216,3.7978-53.126,8.5293,0,0,8.6055-3.23,14.0122-3.29a88.864,88.864,0,0,1,27.05,4.1426c21.4018,6.5567,23.7441,12.0479,27.3442,14.0371,7.7749,4.2949,27.3662,21.1778,27.3662,21.1778S241.0488,258.5605,240.1636,252.959Z" transform="translate(-76.3199 -18.0107)"/><path d="M239.7983,254.6641s-15.1318-13.6866-32.6552-18.5206a89.8791,89.8791,0,0,0-43.5-.6093s25.9785-1.667,45.1445,8.7119A207.4006,207.4006,0,0,1,241.1387,266.18Z" transform="translate(-76.3199 -18.0107)" fill="url(#linear-gradient-49)"/><path d="M244.916,277.3281s-23.7773-24.7607-49.4136-34.3906c-17.1157-6.4287-37.3427-5.332-37.3427-5.332s34.1176-7.6758,64.3359,16.3281c9.21,7.3154,19.74,14.3779,19.74,14.3779Z" transform="translate(-76.3199 -18.0107)" fill="url(#linear-gradient-50)"/><path d="M243.5757,277.8164s-23.273-21.69-41.55-28.0254c-17.6992-6.1367-26.1978-3.23-28.0254-.8535,0,0,7.6763-3.4727,20.8359,1.2793s26.8072,16.2676,33.021,22.1152c6.2144,5.85,16.937,10.9668,16.937,10.9668Z" transform="translate(-76.3199 -18.0107)" fill="url(#linear-gradient-51)"/><path d="M244.6724,284.5176s-10.6011-5.1172-13.9888-8.2949a61.9325,61.9325,0,0,0-16.9609-10.5918c-12.794-5.6055-20.897-6.2754-20.897-6.2754s13.0986,3.1074,16.6323,7.9814c0,0-13.769-7.1894-26.0757-4.2646,0,0,16.8155-3.0469,33.9351,10.3574,0,0,3.5449,3.08,6.3472,5.6513,11.5034,10.5538,23.8212,17.0557,24.0537,17.9874C247.7183,297.0684,245.0376,288.417,244.6724,284.5176Z" transform="translate(-76.3199 -18.0107)" fill="url(#linear-gradient-52)"/><path d="M215.7939,165.1055s-30.8276-32.7774-44.353-38.1387-26.0752-7.3106-35.3359-8.7734-25.3443-1.9493-34.3613-6.4571-13.7691-10.48-15.5967-19.74c0,0,0,12.916,14.622,20.1055s29.731,9.1386,36.92,10.8447,22.9077,5.7265,35.58,13.4033c0,0-24.979-10.7227-38.6259-13.0381s-20.8365-1.4619-20.8365-1.4619,9.87,1.0967,11.9414,2.1934c0,0-18.1557-1.4629-23.8823,3.289,0,0,10.9663-4.3857,32.29.3662s32.29,13.8907,32.29,13.8907a80.1082,80.1082,0,0,0-42.4033-7.3116s-24.7354-1.34-38.9917,5.85c0,0,23.0293-7.5546,42.6475-3.8994s42.8906,15.1094,57.2685,29c0,0,8.8062,1.919,21.417,11.2393,12.7046,9.3906,21.7178,25.1934,21.7178,25.1934S217.5,168.3955,215.7939,165.1055Z" transform="translate(-76.3199 -18.0107)" fill="url(#linear-gradient-53)"/><path d="M223.3486,187.4043c-15.2309-23.0293-56.1113-43.9268-56.1113-43.9268-14.8047-8.7734-38.8086-8.1025-38.8086-8.1025,26.8677,2.9238,54.104,25.4658,54.104,25.4658,33.9942,13.9815,43.375,36.5547,43.375,36.5547Z" transform="translate(-76.3199 -18.0107)" fill="url(#linear-gradient-54)"/><path d="M215.6724,166.3242s-29.2437-29.4267-42.4034-37.1035S127.3931,118.62,117.34,116.9756c0,0,13.5972,2.7383,20.836,4.7519,9.2,2.5586,24.4306,3.7168,39.8447,15.9619,13.3423,10.6,37.834,32.29,40.21,35.0313Z" transform="translate(-76.3199 -18.0107)" fill="url(#linear-gradient-55)"/><path d="M218.9624,174.7314S183.687,142.93,171.4409,136.8975s-32.3506-13.7081-48.4346-14.2559l5.1177,1.8271s-14.4389.1836-17.5464.5489c0,0,26.3194-1.0967,44.9624,8.2246,0,0,10.9053,5.3613,12.7329,9.1992,0,0,16.4161,9.0059,25.2227,14.9883a126.3632,126.3632,0,0,1,30.0967,28.5117S220.6069,177.8389,218.9624,174.7314Z" transform="translate(-76.3199 -18.0107)" fill="url(#linear-gradient-56)"/><path d="M240.1567,97.07c.9932-.9238,12.6558,12.62,19.564,29.7754,4.75,11.7949,6.6069,24.4434,6.5381,37.07-.1519,27.7481-11.1958,57.0684-29.5991,78.9414l.0634.1006c1.5694-1.0322,2.8287-3.1494,3.9893-4.5771,1.8706-2.2989,3.6431-4.668,5.3325-7.086a134.22,134.22,0,0,0,10.3291-17.4658,116.4885,116.4885,0,0,0,11.82-40.7275c1.2232-13.3321-.8974-26.0821-4.8183-38.9454-4.0982-13.4462-11.1489-27.9648-23.1167-37.1523l-.1026.0664Z" transform="translate(-76.3199 -18.0107)" fill="url(#linear-gradient-57)"/><path d="M269.897,187.5283c.6216.4629-.1241,16.63-8.897,38.0147-9.9844,24.3359-21.61,37.6611-21.019,38.0166.5957-1.5577,14.4462-16.1953,22.0556-36.7237,9.0161-24.3222,8.6035-38.8437,7.86-39.3076C269.8647,187.5039,269.8955,187.5273,269.897,187.5283Z" transform="translate(-76.3199 -18.0107)" fill="url(#linear-gradient-58)"/><path d="M239.2007,127.8984c-.0435-.0136,1.083,3.836,1.8847,8.1914.4107,2.1739.7535,4.4678.9854,6.4317.2349,1.9648.3677,3.5967.4346,4.4472.21,2.6612.3559,5.7325.3525,9.0645-.001,3.332-.1548,6.9238-.4922,10.6191-.3354,3.6944-.855,7.49-1.5356,11.2325-.6787,3.7441-1.5171,7.4326-2.4492,10.9238a141.7414,141.7414,0,0,1-5.9268,17.5449c-1.8174,4.3887-3.19,6.9775-3.1807,6.957.7417.2393,1.4829.4776,2.232.6993,0-.0079,1.3969-2.709,3.209-7.2178a139.2906,139.2906,0,0,0,5.82-18.001c.894-3.5762,1.6826-7.3545,2.2968-11.1855s1.0547-7.712,1.2955-11.4834c.2426-3.7725.2841-7.4327.1616-10.8174s-.4068-6.4932-.7642-9.1709c-.1138-.8555-.34-2.4463-.6826-4.34-.3408-1.8935-.8057-4.0859-1.3267-6.1523C240.49,131.5019,239.1982,127.8984,239.2007,127.8984Z" transform="translate(-76.3199 -18.0107)" fill="url(#linear-gradient-59)"/><path d="M222.29,111.8008a83.3308,83.3308,0,0,1,3.83,21.4228c.47,12.2969-1.9951,26.7354-9.4433,36.8926q.9206.4629,1.8642.8779c.0122-.2773.59-.9082.7266-1.1318.81-1.3223,1.542-2.6924,2.2178-4.0879a61.55,61.55,0,0,0,3.7417-9.8525,68.67,68.67,0,0,0,2.4536-23.3477c-.4522-6.96-1.0083-12.2558-3.418-18.7969a77.2219,77.2219,0,0,0-7.8594-15.81C216.38,97.9336,221.2856,108.5527,222.29,111.8008Z" transform="translate(-76.3199 -18.0107)" fill="url(#linear-gradient-60)"/><path d="M275.4683,218.8164a124.714,124.714,0,0,1-7.2632,24.5215c-5.6118,13.4219-14.7178,28.041-25.8911,36.164q.542.8468,1.1274,1.65c.1455-.2949.9356-.7558,1.1582-.9443,1.3213-1.1182,2.6016-2.3174,3.8462-3.5645a86.8507,86.8507,0,0,0,7.9321-9.1962,103.8335,103.8335,0,0,0,13.4458-24.2188c3.0205-7.666,5.1426-13.582,6.3252-21.5381a103.3155,103.3155,0,0,0,1.1621-20C277.3081,201.6445,276.2158,214.9375,275.4683,218.8164Z" transform="translate(-76.3199 -18.0107)" fill="url(#linear-gradient-61)"/><path d="M171.7456,221.3633a68.8357,68.8357,0,0,0,21.1987,6.2793c10.6368,1.6054,18.3516,2.4843,26.2271,5.9668,8.0923,3.58,15.68,9.1621,18.4463,15.2675.72-.3769-.105-3.3769.5356-3.8593a20.6572,20.6572,0,0,1-2.6929-2.2461,28.1234,28.1234,0,0,0-3.9077-3.9463,40.907,40.907,0,0,0-10-6.0537c-8.1528-3.5528-17.1645-4.793-25.9052-6.43-8.4663-1.5859-17.2115-3.3018-24.8965-7.1455-3.0283-1.5147-8.7339-3.8731-12.9629-14.1406C157.7939,205.07,159.6689,215.5547,171.7456,221.3633Z" transform="translate(-76.3199 -18.0107)" fill="url(#linear-gradient-62)"/><path d="M139.0728,143.6269c.1069.0782,3.2465,6.4913,6.7695,9.84a65.7568,65.7568,0,0,0,10.4971,7.8652,143.3009,143.3009,0,0,0,26.2451,12.6035,112.3814,112.3814,0,0,1,21.978,10.58c7.3125,4.7071,18.7,13.1983,23.5386,20.5567.6977-.6211-.9009-3.2276-.2442-3.9a21.4716,21.4716,0,0,1-2.685-2.2011,60.8715,60.8715,0,0,0-4.3711-4.8526,81.8723,81.8723,0,0,0-10.853-9.0918,104.4083,104.4083,0,0,0-25.7906-12.8779,242.8752,242.8752,0,0,1-28.1909-12.1611c-8.895-4.5088-17.2983-16.2383-16.8935-16.3614C139.0645,143.6211,139.0757,143.6269,139.0728,143.6269Z" transform="translate(-76.3199 -18.0107)" fill="url(#linear-gradient-63)"/><path d="M141.5679,168.6758c.1079.0556,3.2231,7.8672,16.7138,13.915a99.1515,99.1515,0,0,0,26.96,7.3233c26.9575,3.2773,40.0337,15.5859,45.5869,21.6845.5073-.6963-1.3584-2.8759-.8965-3.6133a19.73,19.73,0,0,1-2.7529-1.62,56.6442,56.6442,0,0,0-4.7036-3.8281,74.6863,74.6863,0,0,0-11.1616-6.7324,91.5891,91.5891,0,0,0-24.9971-7.8223,211.4961,211.4961,0,0,1-26.99-6.7558c-8.6338-2.7618-18.0952-12.3692-17.76-12.5508C141.56,168.6719,141.57,168.6748,141.5679,168.6758Z" transform="translate(-76.3199 -18.0107)" fill="url(#linear-gradient-64)"/><path d="M128.459,73.8086c.3716.2344.5674,3.0449.6772,3.5137a45.9769,45.9769,0,0,0,1.9751,6.3847A34.6232,34.6232,0,0,0,137.49,94.2051c6.02,6.6894,14.4966,10.3789,22.8179,13.3232,9.0225,3.1924,20.8516,7.127,28.7705,12.6455,5.3994,3.7627,7.9917,7.4551,12.1279,12.6543.5347-.6777-2.6142-6.1211-3.2924-6.7285a106.7913,106.7913,0,0,0-10.4663-8.2676c-7.8628-5.4375-16.1153-8.8349-25.1509-11.7695-8.25-2.6787-16.732-5.8887-23.1118-11.9844a34.541,34.541,0,0,1-7.1831-9.9687c-.3306-.6836-4.0489-10.1524-3.543-10.3008C128.4419,73.7988,128.4629,73.8076,128.459,73.8086Z" transform="translate(-76.3199 -18.0107)" fill="url(#linear-gradient-65)"/><path d="M163.0659,63.1914c.9238-.3633,5.2276,4.5273,5.9551,5.33a30.5355,30.5355,0,0,1,5.4468,8.289,27.3619,27.3619,0,0,1,1.4511,17.7754c.32.0352.6832,1.12,1.0054,1.1426a19.1583,19.1583,0,0,1,.5723-3.4,28.5362,28.5362,0,0,0-7.8125-23.791c-.6968-.7227-6.0606-5.8232-6.6182-5.3457C163.0479,63.1992,163.0645,63.1934,163.0659,63.1914Z" transform="translate(-76.3199 -18.0107)" fill="url(#linear-gradient-66)"/><path d="M114.69,45.2363c-.21,3.8447.8687,8.5947,2.065,12.26,2.7534,8.541,8.9731,15.4639,16.1347,20.6514a81.5765,81.5765,0,0,0,24.9683,12.0742c17.2388,5.0947,21.0752,9.7578,21.5962,9.1474.5708-1.1416-16.2051-9.8457-20.4556-11.3-7.4214-2.54-14.6992-5.2041-21.4463-9.292-7.7255-4.6806-14.7392-11-18.6069-19.3017a47.0223,47.0223,0,0,1-3.3413-10.583c-.9141-4.1123.1826-11.6065,1.0952-13.0313C116.688,35.8789,115.0557,38.5654,114.69,45.2363Z" transform="translate(-76.3199 -18.0107)" fill="url(#linear-gradient-67)"/><path d="M253.6885,315.917s-14.58-85.5938-28.6148-129.8c-22.2754-70.1631-47.3623-88.07-51.1308-93.6934a290.4359,290.4359,0,0,1,29.0952,43.5274c9.78,18.4033,16.5107,40.4336,20.68,53.4394,9.5278,29.7207,26.9824,125.4375,26.9824,125.4375S254.5073,321.3711,253.6885,315.917Z" transform="translate(-76.3199 -18.0107)" fill="url(#linear-gradient-68)"/><path d="M253.688,315.4629c-1.4273-8.3789-2.9683-16.74-4.5366-25.0938-3.439-18.3134-7.1079-36.5869-11.1685-54.7714-4.2788-19.1622-8.9292-38.2793-15.186-56.8985-6.7652-20.1338-15.0513-39.9824-26.29-58.0439a156.1714,156.1714,0,0,0-18.9848-24.6338c-.6382-.6768-3.58-3.7393-3.58-3.5821a13.4662,13.4662,0,0,0,1.9131,2.792c2.9336,3.6719,5.7226,7.4678,8.4555,11.2862a256.7613,256.7613,0,0,1,19.8013,31.9472,257.2661,257.2661,0,0,1,14.3437,35.18c2.5831,7.627,5.1377,15.2949,7.2886,23.0586,4.1714,15.0567,7.4258,30.3828,10.65,45.666,3.4243,16.2325,6.6484,32.5069,9.7734,48.8q2.3058,12.0221,4.522,24.06a1.8678,1.8678,0,0,0,.3194.5635,14.2211,14.2211,0,0,0,1.64,2.2412c.5249.56,1.0723.7246,1.1494-.2051A10.8588,10.8588,0,0,0,253.688,315.4629Zm-.3345,2.1631c-.4775-.05-.9394-.753-1.2051-1.0879a6.9033,6.9033,0,0,1-1.4492-2.1709q-.1647-.8994-.3305-1.7988-1.0942-5.9415-2.2168-11.879-4.2187-22.371-8.7442-44.6826c-3.3608-16.5029-6.8223-32.999-10.8457-49.3535a400.456,400.456,0,0,0-15.6079-49.1426,215.4909,215.4909,0,0,0-17.6035-35.3564c-4.9185-7.9639-10.2427-15.6846-15.8916-23.1465q4.0041,4.3579,7.6548,9.0215c9.9853,12.832,17.769,27.3086,24.3432,42.1523,8.8282,19.9317,15.4034,40.7481,20.74,61.8692,4.8559,19.2187,8.9844,38.625,12.8608,58.0654q4.11,20.6089,7.7686,41.3047.4365,2.4741.8628,4.9512a1.7542,1.7542,0,0,1-.0025-.4268,2.1048,2.1048,0,0,0,.0025.4268C253.731,316.6719,253.9683,317.6894,253.3535,317.626Z" transform="translate(-76.3199 -18.0107)" fill="url(#linear-gradient-69)"/></g><g id="Pen"><path d="M259.6465,300.8828c-4.3042-3.582-21.65,2.76-21.65,2.76s5.25,11.9707,6.7807,16.8144,2.8809,15.627,3.0606,17.9121a67.73,67.73,0,0,1-.54,8.3164s1.35,2.2842,6.2109,1.8272a16.7873,16.7873,0,0,0,8.4678-3.5654c-2.605-5.0274-4.2369-18.0928-4.3267-23.9414S259.6465,300.8828,259.6465,300.8828Z" transform="translate(-76.3199 -18.0107)" fill="url(#linear-gradient-70)"/><path d="M261.9878,344.97l-.0112-.0224Z" transform="translate(-76.3199 -18.0107)" fill="url(#linear-gradient-71)"/><path d="M262.1938,345.44c-3.4228-7.7392-4.1494-16.6191-3.955-25.3213a123.8,123.8,0,0,1,1.5381-16.8906c.0356-.2246.0722-.4473.1118-.67a3.3755,3.3755,0,0,0-.06-1.1836c-.0742-.6484-.2182-1.3106-.4331-1.3223q-5.105-.2519-10.2046-.416c-.062-.1816-.1269-.3-.186-.2676a1.527,1.527,0,0,1-.9531.2334c-.0581-.0009-.0713.1436-.0669.3213-3.1245,1.6953-6.9961,2.5762-10.1363,4.211-.3305.1709.9068,2.788,1.0459,3.0449a70.31,70.31,0,0,1,4.6265,10.8447c2.6152,7.5772,4.4316,15.915,3.9556,24.2647a41.2353,41.2353,0,0,1-.7393,5.7461c-.0547.2753.08,2.34.4038,2.291l7.1235-.959a.07.07,0,0,0,.0577.02c.3213-.0615.64-.1133.9629-.1563a.0641.0641,0,0,0,.0439-.0361l7.0889-1.3672C262.7358,347.7617,262.2974,345.6728,262.1938,345.44Zm-4.9711,2.378c-.0166.0029-.9024.6513-.9136.67-.2905.041-.8081.1875-1.0967.2431-.0181-.0127-4.01,2.4288-2.9853-.3046l-4.6011-.6944a51.1677,51.1677,0,0,0,.3086-10.6816,77.7133,77.7133,0,0,0-2.0909-12.9043,97.6533,97.6533,0,0,0-6.5327-18.3672c2.9571-1.52,6.2925-1.8711,9.2378-3.4375.0567-.0293.0786-.1328.0825-.26a1.3883,1.3883,0,0,0,.6939-.1562c.0522.1142.1113.1894.1787.1924q4.7307.1889,9.4648.4521c-.4833,3.3535-.7875,6.7324-1.0112,10.0674a94.0552,94.0552,0,0,0,1.3389,25.3691,51.6581,51.6581,0,0,0,2.0991,7.4151Z" transform="translate(-76.3199 -18.0107)" fill="url(#linear-gradient-72)"/><path d="M240.8433,305.375a161.7666,161.7666,0,0,1,5.7954,15.7969,74.26,74.26,0,0,1,2.7256,24.8789c-.0181.4072-.0376.8144-.0669,1.2217-.02.2646.5976.7675.6.7451.1777-2.4453.1831-4.9219.1347-7.378a70.4053,70.4053,0,0,0-1.6889-14.788,127.7907,127.7907,0,0,0-6.4732-18.8487l-.4345-1.0439a1.7676,1.7676,0,0,0-.4024-.541C241.002,305.3867,240.76,305.18,240.8433,305.375Z" transform="translate(-76.3199 -18.0107)"/><path d="M257.4683,301.7988c-.5245,5.959-1.0191,11.8594-1.2671,17.7481a83.8745,83.8745,0,0,0,3.0566,25.0761c.1035.3916.209.7832.3228,1.17.0747.2539-.416.9492-.4229.9267-.6826-2.331-1.2178-4.7314-1.707-7.1279a78.6958,78.6958,0,0,1-1.7446-14.8887c-.0718-6.9033.6772-13.8926,1.2749-20.8457l.1054-1.2168a2.31,2.31,0,0,1,.2173-.7129C257.3232,301.8838,257.4883,301.5674,257.4683,301.7988Z" transform="translate(-76.3199 -18.0107)"/><path d="M255.2227,300.707h-.0005q-3.24-.06-6.479-.0879-2.9979,1.5264-6.0044,3.0166v.001c0,.002.8759,1.4424,2.104,3.9736a84.3846,84.3846,0,0,1,4.2114,10.462,73.5917,73.5917,0,0,1,3.2363,14.4882,46.5473,46.5473,0,0,1-.6963,15.7676l3.0264-.4228,3.01-.5791a47.1113,47.1113,0,0,1-4.1031-14.99,87.5647,87.5647,0,0,1-.3515-15.0849c.2636-4.667.7827-8.7862,1.226-11.7569.4444-2.9687.8189-4.7851.82-4.7871Z" transform="translate(-76.3199 -18.0107)" fill="url(#linear-gradient-73)"/><path d="M255.2227,300.4326c-1.08,0-2.1612-.0371-3.2408-.0517q-.8994-.0132-1.8-.0225a6.2169,6.2169,0,0,0-1.5122-.0039,8.0167,8.0167,0,0,0-1.3281.6689q-.7888.3986-1.5791.7969-1.579.794-3.1621,1.5791a.2749.2749,0,0,0-.126.31,11.3175,11.3175,0,0,0,1.16,2.1123c.7993,1.5166,1.5307,3.0693,2.2226,4.6377a83.7824,83.7824,0,0,1,4.1006,11.5762c2.3286,8.4628,3.3594,17.5859,1.3721,26.2207a.278.278,0,0,0,.3374.3359c2.0288-.2832,4.0249-.6143,6.0366-1.001a.2778.2778,0,0,0,.1641-.4033c-3.8111-7.9375-4.6953-16.9688-4.5728-25.67a116.7629,116.7629,0,0,1,.89-12.4082q.3331-2.7436.7851-5.4717.167-1.0152.3555-2.0264.0571-.309.1177-.6172c.0078-.039.0835-.2832.0156-.1484.1577-.3154-.315-.5938-.4732-.2773a10.1962,10.1962,0,0,0-.4975,2.6445c-.3,1.7715-.5537,3.55-.7813,5.332a118.8605,118.8605,0,0,0-.96,12.9727c-.1533,8.789.8013,17.9355,4.6474,25.9472q.082-.2021.1641-.4023c-2.0122.3867-4.0078.7178-6.0371,1.001.1128.1123.2251.2256.3374.3369,1.9663-8.541.9961-17.4883-1.2046-25.8867a84.0267,84.0267,0,0,0-3.99-11.56q-1.0042-2.3628-2.167-4.6553-.53-1.0488-1.1031-2.0742c-.101-.1816-.2045-.3613-.309-.541-.0235-.04-.1172-.2617-.0816-.1211l-.126.31q2.85-1.4164,5.6885-2.8564a3.76,3.76,0,0,1,1.6162-.11q.9.01,1.8.0225c1.08.0147,2.1607.0527,3.2408.0527A.2746.2746,0,0,0,255.2227,300.4326Z" transform="translate(-76.3199 -18.0107)" fill="url(#linear-gradient-74)"/><path d="M260.1523,289.8066c2.4327,1.0411,4.0464,2.5948,4.3829,4.5293.8081,4.6407-6.021,9.7071-15.2535,11.3145s-17.373-.8526-18.1811-5.4942c-.3364-1.9345.6572-3.9423,2.5957-5.7431,3.4033,1.4541,8.4121,1.9033,13.7974.9648C252.8774,294.4414,257.4409,292.3262,260.1523,289.8066Z" transform="translate(-76.3199 -18.0107)" fill="url(#linear-gradient-75)"/><path d="M259.6958,289.8223c1.93.8525,3.79,2.16,4.3384,4.3076a5.2907,5.2907,0,0,1-.92,4.0781c-2.2056,3.4463-6.5816,5.36-10.3286,6.5186a26.4528,26.4528,0,0,1-15.6412.3964c-3.2-1.0185-6.5434-3.4961-5.3935-7.27a8.4039,8.4039,0,0,1,2.4023-3.455c-.3042.0107-.6089.0205-.9131.0312,4.0489,1.6875,8.6724,1.6885,12.9693,1.19,5.081-.5888,10.5566-2.3173,14.4-5.8281-.168.1533-.7393-.1269-.9136.0313a24.2751,24.2751,0,0,1-11.0376,5.249c-4.7183,1.084-9.9644,1.2178-14.5054-.6738a2.3574,2.3574,0,0,0-.9131.0312c-1.6508,1.5752-3.0825,3.6826-2.5263,6.0674a5.8606,5.8606,0,0,0,2.72,3.3789c3.2847,2.1309,7.6069,2.3848,11.4028,2.2519a32.3942,32.3942,0,0,0,13.3809-3.2294c2.8891-1.4473,6.4712-3.93,6.8242-7.4512.2783-2.7754-2.168-4.6553-4.4321-5.6553C260.356,289.68,259.9438,289.9326,259.6958,289.8223Z" transform="translate(-76.3199 -18.0107)" fill="url(#linear-gradient-76)"/><path d="M255.4561,298.7129c1.663-4.0195,5.24-6.8194,7.94-9.8272,1.4194-1.5791,4.8852-5.3974,4.8218-9.3115-.0537-3.3457-2.375-5.7715-2.753-5.5273a17.83,17.83,0,0,0-5.3955,6c-1.3457,2.2422-2.3188,4.4668-3.1372,5.9013a41.4963,41.4963,0,0,0-3.5058,9.6348,49.8446,49.8446,0,0,0-1.5987,10.14c-.0576,2.6494-.2871,5.7128-.21,8.6171C251.6177,314.34,253.2993,304.123,255.4561,298.7129Z" transform="translate(-76.3199 -18.0107)" fill="url(#linear-gradient-77)"/><path d="M251.3437,302.916a41.7535,41.7535,0,0,1,4.2549-15.2392c.7779-1.4639,2.2417-3.9834,3.5025-6.5557,1.2622-2.5684,2.3193-5.1934,2.3169-6.8106a8.9532,8.9532,0,0,0-3.6431-7.7031c-1.1543-.8047-1.1992-.7441-2.0122.21-1.9434,2.2861-3.2534,6.0654-4.148,9.5478a71.6291,71.6291,0,0,0-1.5092,7.8487c-.7368,5.4648-.2,18.7548-.1328,19.83.3076,4.94.6586,10.4825.7661,10.4219,0,0,.0932-4.1094.4218-8.2588C251.2471,305.1162,251.2422,303.9648,251.3437,302.916Z" transform="translate(-76.3199 -18.0107)" fill="url(#linear-gradient-78)"/><path d="M236.0132,264.5a23.9926,23.9926,0,0,1,3.355-4.9971c.8925-1.0732,1.5185-1.8037,1.55-2.9551l.0507-.0166a6.29,6.29,0,0,0,2.8985,1.836,18.3167,18.3167,0,0,1,5.2578,3.4219,9.3362,9.3362,0,0,1,2.7612,5.3759,23.7907,23.7907,0,0,1-.2969,6.6123c-.3515,2.3487-.8139,4.3887-.9252,4.8047a56.9792,56.9792,0,0,0-1.5474,13.2149c-.07,4.17.1577,7.6113.2539,8.8144.4116,5.1006.9512,11.961,1.0259,14.0772a.4374.4374,0,0,1-.0469.208.4509.4509,0,0,1-.0957-.19c-.4375-2.0712-1.6465-8.8427-2.6133-13.86-.2265-1.1836-1.35-5.1035-2.7949-9.3438a72.8,72.8,0,0,0-4.6655-11.2783c-.2134-.3662-1.2715-2.14-2.3516-4.1884a25.2289,25.2289,0,0,1-2.46-5.8877A8.83,8.83,0,0,1,236.0132,264.5Z" transform="translate(-76.3199 -18.0107)" fill="url(#linear-gradient-79)"/><path d="M246.4468,310.1894a43.9928,43.9928,0,0,0-5.5674-9.456c-2.6733-3.3877-6.4751-5.0625-9.898-7.1221-1.8-1.0849-6.1816-3.6533-7.2485-7.1953-.9121-3.0312.5635-5.8574.9971-5.76a16.6318,16.6318,0,0,1,6.9287,3.8213c1.9429,1.668,3.5117,3.4659,4.7031,4.5791a37.6077,37.6077,0,0,1,6.0371,8.1485,45.9181,45.9181,0,0,1,4.2207,9.2968c.74,2.5342,1.4722,5.7208,2.1118,8.4629C248.7314,314.9648,247.0908,311.6133,246.4468,310.1894Z" transform="translate(-76.3199 -18.0107)" fill="url(#linear-gradient-80)"/><path d="M249.8281,315.2158c-.7768-2.0107-1.8349-6.5693-3.6245-11.29-1.7876-4.7207-4.3779-9.917-8.0747-13.6211-1.1582-1.1612-3.2764-3.1113-5.2314-5.12s-3.7466-4.0723-4.2369-5.52a8.1734,8.1734,0,0,1,1.0035-7.9346c.8169-1.0713.8769-1.041,1.9614-.49,2.5957,1.32,5.0669,4.3291,6.9863,7.2978a57.7838,57.7838,0,0,1,3.7886,6.9238c3.0464,6.5869,3.9922,12.8575,4.77,16.3594C248.79,308.791,249.8281,315.2158,249.8281,315.2158Z" transform="translate(-76.3199 -18.0107)" fill="url(#linear-gradient-81)"/><path d="M250.7036,313.67c-.19-.5195-.2217-5.1533-.352-11.6543-.1255-6.5019-.1075-14.2929.6362-19.4717a40.698,40.698,0,0,1,3.21-11.4287,16.2187,16.2187,0,0,1,2.0786-3.5136,6.1283,6.1283,0,0,1,3.2427,4.623c.3691,3.041-.4258,7.0469-3.127,12.1231a48.3513,48.3513,0,0,0-3.8931,9.76,44.5391,44.5391,0,0,0-1.6113,13.4238Z" transform="translate(-76.3199 -18.0107)" fill="url(#linear-gradient-82)"/><path d="M251.6787,313.1826c.0327-2.89.3565-5.5527.6636-8.4307a75.21,75.21,0,0,1,1.1977-7.747,42.1886,42.1886,0,0,1,2.5318-7.9131,59.17,59.17,0,0,1,4.33-8.376,21.304,21.304,0,0,1,3.789-4.7295,6.8963,6.8963,0,0,1,.7852-.6015,6.3214,6.3214,0,0,1,1.7861,4.2988c.0679,2.4443-.854,4.2246-2.2,6.3086-1.53,2.3691-3.7827,4.25-5.6465,6.3584a20.75,20.75,0,0,0-4.28,7.2666c-.5244,1.5937-.8984,3.2383-1.2631,4.8672q-.504,2.2529-.9029,4.5215C252.21,310.4727,251.86,311.707,251.6787,313.1826Z" transform="translate(-76.3199 -18.0107)" fill="url(#linear-gradient-83)"/><path d="M249.5127,313.9844s-.9976-5.1338-2.5806-11.4375c-1.5776-6.3037-3.7563-13.7715-5.9863-18.4453a34.0638,34.0638,0,0,0-6.5156-9.627,13.9291,13.9291,0,0,0-3.0845-2.45,5.769,5.769,0,0,0-1.56,5.1231c.5992,2.832,2.5479,6.2275,6.5616,10.2148a43.24,43.24,0,0,1,6.4233,8.165,41.9224,41.9224,0,0,1,5.0762,12.4834Z" transform="translate(-76.3199 -18.0107)" fill="url(#linear-gradient-84)"/><path d="M248.51,314.3916a83.1362,83.1362,0,0,0-2.772-8.4121,69.3635,69.3635,0,0,0-3.24-7.2842,39.782,39.782,0,0,0-4.6553-6.9941,51.192,51.192,0,0,0-6.6094-6.75,19.7472,19.7472,0,0,0-5.063-3.2686,7.2212,7.2212,0,0,0-.9375-.3135,6.0111,6.0111,0,0,0-.4321,4.4961c.6518,2.2871,2.0537,3.69,3.9477,5.2823,2.1539,1.81,4.8609,2.98,7.2535,4.5009a20.2639,20.2639,0,0,1,6.14,5.8985,48.9178,48.9178,0,0,1,2.5235,4.4394q1.0831,2.083,2.0571,4.2207C247.3521,311.5859,247.9634,312.98,248.51,314.3916Z" transform="translate(-76.3199 -18.0107)" fill="url(#linear-gradient-85)"/><path d="M241.1709,257.33l-.0122-.042A.1425.1425,0,0,1,241.1709,257.33Z" transform="translate(-76.3199 -18.0107)"/><path d="M241.1323,257.2959l.0122.041A.1211.1211,0,0,1,241.1323,257.2959Z" transform="translate(-76.3199 -18.0107)"/><path d="M241.1587,257.1914l.0122.04A.1311.1311,0,0,1,241.1587,257.1914Z" transform="translate(-76.3199 -18.0107)"/><path d="M237.2715,270.248a11.5626,11.5626,0,0,1-.021-4.4795,9.6137,9.6137,0,0,1,.3047-1.11,15.5621,15.5621,0,0,1,2.1357-4.2373,9.4287,9.4287,0,0,0,1.5449-2.82,1.1867,1.1867,0,0,0,.0245-.1865l-.0293-.1016a.6006.6006,0,0,0,.0307.0586.47.47,0,0,0-.0058-.0664l.0219.0781.0064-.0742-.03-.1016a.3173.3173,0,0,0,.0313.0586.583.583,0,0,0-.0064-.0654l.0293.1016a9.9236,9.9236,0,0,0,2.9321,2.039,13.5234,13.5234,0,0,1,3.3164,2.6768,10.5941,10.5941,0,0,1,1.0953,1.4023,11.7476,11.7476,0,0,1,1.66,4.4863,29.9555,29.9555,0,0,1-.1562,9.7383c-.4869,3.4219-1.21,6.9365-1.5733,10.3321-.4311,4.0761.0791,10.0976.6284,15.3662l1.0664,11.0283c.0323.3789-1.645-10.9981-1.645-10.9981-.3149-1.9482-.5508-3.9961-.9741-6a53.1467,53.1467,0,0,0-2.5693-8.9814c-1.3086-3.1231-3.02-6.2314-4.5259-9.2695A33.4429,33.4429,0,0,1,237.2715,270.248Z" transform="translate(-76.3199 -18.0107)" fill="url(#linear-gradient-86)"/><path d="M241.1978,257.2236l-.0123-.04A.1085.1085,0,0,1,241.1978,257.2236Z" transform="translate(-76.3199 -18.0107)"/><path d="M255.7363,350.9375s8.335,40.9238,7.8335,52.0029c0,0-2.9306-27.3525-17.9873-38.3955a7.7633,7.7633,0,0,0,4.5728-8.0146,26.938,26.938,0,0,1,.2773-6.7481S254.6147,346.4531,255.7363,350.9375Z" transform="translate(-76.3199 -18.0107)" fill="url(#linear-gradient-87)"/><path d="M255.7363,351.3945q2.81,13.8033,5.0972,27.7119c1.0269,6.253,2.0137,12.5381,2.542,18.8565.1011,1.209.1787,2.4209.206,3.6338.0074.3349.043,1.3056-.0581.499-.1914-1.5234-.4506-3.04-.74-4.5479a81.8014,81.8014,0,0,0-5.01-16.7334c-2.7182-6.3671-6.5532-12.5546-12.1909-16.7265v.914a7.6561,7.6561,0,0,0,3.084-2.4453,9.1641,9.1641,0,0,0,1.49-6.4668,24.1645,24.1645,0,0,1,.22-5.5254c.0717-.4589.3476-.5488.7514-.79a4.3884,4.3884,0,0,1,2.4551-.7139c1.2554.0723,1.8618,1.2657,2.1533,2.334-.0766-.2812.0777-.6289,0-.914-.3081-1.13-.8911-2.1856-2.1533-2.334a4.1933,4.1933,0,0,0-2.4551.7148c-.4077.2334-.6772.334-.7514.7891a25.7172,25.7172,0,0,0-.315,3.8633c-.0156,1.4414.2149,2.9453.0806,4.37a7.6534,7.6534,0,0,1-4.56,6.2041,4.3613,4.3613,0,0,0,0,.914c5.9424,4.3965,9.84,10.9922,12.61,17.7266a82.73,82.73,0,0,1,4.8442,17.1084c.208,1.1807.4043,2.3682.5332,3.5606l.001-.0166a82.1635,82.1635,0,0,0-1.0957-14.3135c-.9072-6.7744-2.05-13.5166-3.2524-20.2432-1.0953-6.126-2.2447-12.2441-3.4864-18.3437C255.7954,350.7715,255.6763,351.1016,255.7363,351.3945Z" transform="translate(-76.3199 -18.0107)" fill="url(#linear-gradient-88)"/><path d="M259.7085,349.1631s.9106,6.0381,4.8369,8.8008a19.9614,19.9614,0,0,0,2.7905,1.125c.7222.1953-.9746,2.8027-1.7055,6.9453a174.4831,174.4831,0,0,0-1.8277,17.79c-.1777,4.9414-.1772,10.1436-.1523,11.377.043,2.1406.0454,7.5859.0454,7.5859s-3.2983-25.7432-3.3579-26.2627-4.53-25.47-4.4556-26.376S258.2437,346.62,259.7085,349.1631Z" transform="translate(-76.3199 -18.0107)" fill="url(#linear-gradient-89)"/><path d="M250.9966,351.668s.9775,5.9082-.0215,8.4912a10.7924,10.7924,0,0,1-2.894,4.1191s1.4155,1.0518,1.477,1.376c0,0,2.7451-3.3926,3.1138-6.58a29.3289,29.3289,0,0,0-.2486-7.457s.3457-2.1348-.7607-1.6934C250.5562,350.3672,250.9966,351.668,250.9966,351.668Z" transform="translate(-76.3199 -18.0107)" fill="url(#linear-gradient-90)"/><path d="M252.9463,351.1689s.5864,6.0987.041,8.751a24.6534,24.6534,0,0,1-2.6553,6.1319s2.0181,2.3212,3.2354,3.76a6.7976,6.7976,0,0,0,2.0713-4.9961c.0337-3.3056-.8057-14.2754-.8057-14.2754s-.5088-.9775-1.0278-.9179S252.7012,349.8047,252.9463,351.1689Z" transform="translate(-76.3199 -18.0107)" fill="url(#linear-gradient-91)"/><path d="M255.67,352.4863s1.0786,8.6973.7153,12.5176c-.2319,2.4434-.7612,4.7246-1.8725,5.6855,0,0,5.5312,13.3692,7.7661,23.05,0,0-2.7515-18.98-3.6128-23.5264S255.67,352.4863,255.67,352.4863Z" transform="translate(-76.3199 -18.0107)" fill="url(#linear-gradient-92)"/><path d="M259.1172,349.1562a41.6435,41.6435,0,0,0,2.3345,6.3116c1.0195,1.7607,2.9453,3.5947,4.2412,3.6728a6.3414,6.3414,0,0,0-.9361,2.7783,47.1884,47.1884,0,0,1-4.6626-6.8545,43.1385,43.1385,0,0,1-2.1455-5.7265S258.4805,348.0469,259.1172,349.1562Z" transform="translate(-76.3199 -18.0107)" fill="url(#linear-gradient-93)"/><path d="M256.0029,350.2275s2.3316,5.2823,3.6568,8.8614,2.8393,7.4277,4.3867,8.2861a14.15,14.15,0,0,1,.6089-4.5088s-4.5708-6.05-5.645-8.7832-1.4429-4.7471-1.7032-4.62S255.8857,348.9951,256.0029,350.2275Z" transform="translate(-76.3199 -18.0107)" fill="url(#linear-gradient-94)"/><path d="M257.2227,354.58a70.4312,70.4312,0,0,0,3.0463,8.8955,20.6746,20.6746,0,0,0,3.5337,4.9951,44.1473,44.1473,0,0,0-.853,10.4795c.0386,2.085-.0127,8.1641.1216,12.5508,0,0-2.94-19.878-3.2974-21.6241S257.2227,354.58,257.2227,354.58Z" transform="translate(-76.3199 -18.0107)" fill="url(#linear-gradient-95)"/><path d="M262.7153,343.043a5.7373,5.7373,0,0,1,2.96,3.9218c.6347,3.8789-3.6958,7.8164-9.6719,8.794s-11.3364-1.374-11.9712-5.252a5.7385,5.7385,0,0,1,1.5567-4.6611,14.9892,14.9892,0,0,0,17.1259-2.8027Z" transform="translate(-76.3199 -18.0107)" fill="url(#linear-gradient-96)"/><path d="M266.18,347.3437a5.7032,5.7032,0,0,0-3.0083-4.3164.6572.6572,0,0,0-.4536.0127c-.1939-.0312-.3887-.0615-.46.0186-3.834,4.3349-11.1875,5.6562-16.2119,2.77a2.6382,2.6382,0,0,0-.9136.0322,5.7418,5.7418,0,0,0-1.4238,5.24,5.95,5.95,0,0,0,2.71,3.2744c2.5962,1.6465,5.8452,1.7666,8.8189,1.5224,3.5356-.291,7.29-1.7529,9.5693-4.5654A5.8442,5.8442,0,0,0,266.18,347.3437Zm-1.6724,3.1172c-1.5391,2.7813-4.8154,4.3438-7.769,5.0752a12.2929,12.2929,0,0,1-9.961-1.5654A5.6671,5.6671,0,0,1,244.57,350.88a5.4865,5.4865,0,0,1,1.1929-4.6885,15.4248,15.4248,0,0,0,7.9394,1.1348,14.3225,14.3225,0,0,0,9.0948-3.9024A5.2365,5.2365,0,0,1,264.5078,350.4609Z" transform="translate(-76.3199 -18.0107)" fill="url(#linear-gradient-97)"/></g></svg>